solid OpenSCAD_Model
  facet normal -0.377964 0.654654 -0.654654
    outer loop
      vertex 0 0 13.1338
      vertex 22.7483 0 0
      vertex 0 -13.1338 0
    endloop
  endfacet
  facet normal 0.377964 0.654654 -0.654654
    outer loop
      vertex 0 0 13.1338
      vertex 0 -13.1338 0
      vertex -22.7483 0 0
    endloop
  endfacet
  facet normal 0.377964 -0.654654 -0.654654
    outer loop
      vertex 0 0 13.1338
      vertex -22.7483 0 0
      vertex 0 13.1338 0
    endloop
  endfacet
  facet normal -0.377964 -0.654654 -0.654654
    outer loop
      vertex 0 0 13.1338
      vertex 0 13.1338 0
      vertex 22.7483 0 0
    endloop
  endfacet
  facet normal 0 0 -1
    outer loop
      vertex 3.09204 2.53757 -2
      vertex 2.82843 2.82843 -2
      vertex 23.0947 0 -2
    endloop
  endfacet
  facet normal 0 0 -1
    outer loop
      vertex 3.32588 2.22228 -2
      vertex 3.09204 2.53757 -2
      vertex 23.0947 0 -2
    endloop
  endfacet
  facet normal 0 0 -1
    outer loop
      vertex 3.52769 1.88559 -2
      vertex 3.32588 2.22228 -2
      vertex 23.0947 0 -2
    endloop
  endfacet
  facet normal 0 0 -1
    outer loop
      vertex 3.69552 1.53073 -2
      vertex 3.52769 1.88559 -2
      vertex 23.0947 0 -2
    endloop
  endfacet
  facet normal 0 0 -1
    outer loop
      vertex 3.82776 1.16114 -2
      vertex 3.69552 1.53073 -2
      vertex 23.0947 0 -2
    endloop
  endfacet
  facet normal 0 0 -1
    outer loop
      vertex 3.92314 0.780361 -2
      vertex 3.82776 1.16114 -2
      vertex 23.0947 0 -2
    endloop
  endfacet
  facet normal 0 0 -1
    outer loop
      vertex 3.98074 0.392069 -2
      vertex 3.92314 0.780361 -2
      vertex 23.0947 0 -2
    endloop
  endfacet
  facet normal 0 0 -1
    outer loop
      vertex 4 0 -2
      vertex 3.98074 0.392069 -2
      vertex 23.0947 0 -2
    endloop
  endfacet
  facet normal 0 0 -1
    outer loop
      vertex 3.98074 -0.392069 -2
      vertex 4 0 -2
      vertex 23.0947 0 -2
    endloop
  endfacet
  facet normal 0 0 -1
    outer loop
      vertex 3.92314 -0.780361 -2
      vertex 3.98074 -0.392069 -2
      vertex 23.0947 0 -2
    endloop
  endfacet
  facet normal 0 0 -1
    outer loop
      vertex 3.82776 -1.16114 -2
      vertex 3.92314 -0.780361 -2
      vertex 23.0947 0 -2
    endloop
  endfacet
  facet normal 0 0 -1
    outer loop
      vertex 3.69552 -1.53073 -2
      vertex 3.82776 -1.16114 -2
      vertex 23.0947 0 -2
    endloop
  endfacet
  facet normal 0 0 -1
    outer loop
      vertex 3.52769 -1.88559 -2
      vertex 3.69552 -1.53073 -2
      vertex 23.0947 0 -2
    endloop
  endfacet
  facet normal 0 0 -1
    outer loop
      vertex 3.32588 -2.22228 -2
      vertex 3.52769 -1.88559 -2
      vertex 23.0947 0 -2
    endloop
  endfacet
  facet normal 0 0 -1
    outer loop
      vertex 3.09204 -2.53757 -2
      vertex 3.32588 -2.22228 -2
      vertex 23.0947 0 -2
    endloop
  endfacet
  facet normal 0 0 -1
    outer loop
      vertex 2.82843 -2.82843 -2
      vertex 3.09204 -2.53757 -2
      vertex 23.0947 0 -2
    endloop
  endfacet
  facet normal 0 -0 -1
    outer loop
      vertex 2.53757 -3.09204 -2
      vertex 2.82843 -2.82843 -2
      vertex 0 -13.3338 -2
    endloop
  endfacet
  facet normal 0 -0 -1
    outer loop
      vertex 2.22228 -3.32588 -2
      vertex 2.53757 -3.09204 -2
      vertex 0 -13.3338 -2
    endloop
  endfacet
  facet normal 0 -0 -1
    outer loop
      vertex 1.88559 -3.52769 -2
      vertex 2.22228 -3.32588 -2
      vertex 0 -13.3338 -2
    endloop
  endfacet
  facet normal 0 -0 -1
    outer loop
      vertex 1.53073 -3.69552 -2
      vertex 1.88559 -3.52769 -2
      vertex 0 -13.3338 -2
    endloop
  endfacet
  facet normal 0 -0 -1
    outer loop
      vertex 1.16114 -3.82776 -2
      vertex 1.53073 -3.69552 -2
      vertex 0 -13.3338 -2
    endloop
  endfacet
  facet normal 0 -0 -1
    outer loop
      vertex 0.780361 -3.92314 -2
      vertex 1.16114 -3.82776 -2
      vertex 0 -13.3338 -2
    endloop
  endfacet
  facet normal 0 -0 -1
    outer loop
      vertex 0.392069 -3.98074 -2
      vertex 0.780361 -3.92314 -2
      vertex 0 -13.3338 -2
    endloop
  endfacet
  facet normal 0 0 -1
    outer loop
      vertex -0 -4 -2
      vertex 0.392069 -3.98074 -2
      vertex 0 -13.3338 -2
    endloop
  endfacet
  facet normal 0 0 -1
    outer loop
      vertex -0.392069 -3.98074 -2
      vertex -0 -4 -2
      vertex 0 -13.3338 -2
    endloop
  endfacet
  facet normal 0 0 -1
    outer loop
      vertex -0.780361 -3.92314 -2
      vertex -0.392069 -3.98074 -2
      vertex 0 -13.3338 -2
    endloop
  endfacet
  facet normal 0 0 -1
    outer loop
      vertex -1.16114 -3.82776 -2
      vertex -0.780361 -3.92314 -2
      vertex 0 -13.3338 -2
    endloop
  endfacet
  facet normal 0 0 -1
    outer loop
      vertex -1.53073 -3.69552 -2
      vertex -1.16114 -3.82776 -2
      vertex 0 -13.3338 -2
    endloop
  endfacet
  facet normal 0 0 -1
    outer loop
      vertex -1.88559 -3.52769 -2
      vertex -1.53073 -3.69552 -2
      vertex 0 -13.3338 -2
    endloop
  endfacet
  facet normal 0 0 -1
    outer loop
      vertex -2.22228 -3.32588 -2
      vertex -1.88559 -3.52769 -2
      vertex 0 -13.3338 -2
    endloop
  endfacet
  facet normal 0 0 -1
    outer loop
      vertex -2.53757 -3.09204 -2
      vertex -2.22228 -3.32588 -2
      vertex 0 -13.3338 -2
    endloop
  endfacet
  facet normal 0 0 -1
    outer loop
      vertex -2.82843 -2.82843 -2
      vertex -2.53757 -3.09204 -2
      vertex 0 -13.3338 -2
    endloop
  endfacet
  facet normal -0 -0 -1
    outer loop
      vertex -3.09204 -2.53757 -2
      vertex -2.82843 -2.82843 -2
      vertex -23.0947 0 -2
    endloop
  endfacet
  facet normal -0 -0 -1
    outer loop
      vertex -3.32588 -2.22228 -2
      vertex -3.09204 -2.53757 -2
      vertex -23.0947 0 -2
    endloop
  endfacet
  facet normal -0 -0 -1
    outer loop
      vertex -3.52769 -1.88559 -2
      vertex -3.32588 -2.22228 -2
      vertex -23.0947 0 -2
    endloop
  endfacet
  facet normal -0 -0 -1
    outer loop
      vertex -3.69552 -1.53073 -2
      vertex -3.52769 -1.88559 -2
      vertex -23.0947 0 -2
    endloop
  endfacet
  facet normal -0 -0 -1
    outer loop
      vertex -3.82776 -1.16114 -2
      vertex -3.69552 -1.53073 -2
      vertex -23.0947 0 -2
    endloop
  endfacet
  facet normal -0 -0 -1
    outer loop
      vertex -3.92314 -0.780361 -2
      vertex -3.82776 -1.16114 -2
      vertex -23.0947 0 -2
    endloop
  endfacet
  facet normal -0 -0 -1
    outer loop
      vertex -3.98074 -0.392069 -2
      vertex -3.92314 -0.780361 -2
      vertex -23.0947 0 -2
    endloop
  endfacet
  facet normal -0 -0 -1
    outer loop
      vertex -4 -0 -2
      vertex -3.98074 -0.392069 -2
      vertex -23.0947 0 -2
    endloop
  endfacet
  facet normal 0 0 -1
    outer loop
      vertex -3.98074 0.392069 -2
      vertex -4 -0 -2
      vertex -23.0947 0 -2
    endloop
  endfacet
  facet normal 0 0 -1
    outer loop
      vertex -3.92314 0.780361 -2
      vertex -3.98074 0.392069 -2
      vertex -23.0947 0 -2
    endloop
  endfacet
  facet normal 0 0 -1
    outer loop
      vertex -3.82776 1.16114 -2
      vertex -3.92314 0.780361 -2
      vertex -23.0947 0 -2
    endloop
  endfacet
  facet normal 0 0 -1
    outer loop
      vertex -3.69552 1.53073 -2
      vertex -3.82776 1.16114 -2
      vertex -23.0947 0 -2
    endloop
  endfacet
  facet normal 0 0 -1
    outer loop
      vertex -3.52769 1.88559 -2
      vertex -3.69552 1.53073 -2
      vertex -23.0947 0 -2
    endloop
  endfacet
  facet normal 0 0 -1
    outer loop
      vertex -3.32588 2.22228 -2
      vertex -3.52769 1.88559 -2
      vertex -23.0947 0 -2
    endloop
  endfacet
  facet normal 0 0 -1
    outer loop
      vertex -3.09204 2.53757 -2
      vertex -3.32588 2.22228 -2
      vertex -23.0947 0 -2
    endloop
  endfacet
  facet normal 0 0 -1
    outer loop
      vertex -2.82843 2.82843 -2
      vertex -3.09204 2.53757 -2
      vertex -23.0947 0 -2
    endloop
  endfacet
  facet normal -0 0 -1
    outer loop
      vertex -2.53757 3.09204 -2
      vertex -2.82843 2.82843 -2
      vertex 0 13.3338 -2
    endloop
  endfacet
  facet normal -0 0 -1
    outer loop
      vertex -2.22228 3.32588 -2
      vertex -2.53757 3.09204 -2
      vertex 0 13.3338 -2
    endloop
  endfacet
  facet normal -0 0 -1
    outer loop
      vertex -1.88559 3.52769 -2
      vertex -2.22228 3.32588 -2
      vertex 0 13.3338 -2
    endloop
  endfacet
  facet normal -0 0 -1
    outer loop
      vertex -1.53073 3.69552 -2
      vertex -1.88559 3.52769 -2
      vertex 0 13.3338 -2
    endloop
  endfacet
  facet normal -0 0 -1
    outer loop
      vertex -1.16114 3.82776 -2
      vertex -1.53073 3.69552 -2
      vertex 0 13.3338 -2
    endloop
  endfacet
  facet normal -0 0 -1
    outer loop
      vertex -0.780361 3.92314 -2
      vertex -1.16114 3.82776 -2
      vertex 0 13.3338 -2
    endloop
  endfacet
  facet normal -0 0 -1
    outer loop
      vertex -0.392069 3.98074 -2
      vertex -0.780361 3.92314 -2
      vertex 0 13.3338 -2
    endloop
  endfacet
  facet normal -0 0 -1
    outer loop
      vertex 0 4 -2
      vertex -0.392069 3.98074 -2
      vertex 0 13.3338 -2
    endloop
  endfacet
  facet normal 0 0 -1
    outer loop
      vertex 0.392069 3.98074 -2
      vertex 0 4 -2
      vertex 0 13.3338 -2
    endloop
  endfacet
  facet normal 0 0 -1
    outer loop
      vertex 0.780361 3.92314 -2
      vertex 0.392069 3.98074 -2
      vertex 0 13.3338 -2
    endloop
  endfacet
  facet normal 0 0 -1
    outer loop
      vertex 1.16114 3.82776 -2
      vertex 0.780361 3.92314 -2
      vertex 0 13.3338 -2
    endloop
  endfacet
  facet normal 0 0 -1
    outer loop
      vertex 1.53073 3.69552 -2
      vertex 1.16114 3.82776 -2
      vertex 0 13.3338 -2
    endloop
  endfacet
  facet normal 0 0 -1
    outer loop
      vertex 1.88559 3.52769 -2
      vertex 1.53073 3.69552 -2
      vertex 0 13.3338 -2
    endloop
  endfacet
  facet normal 0 0 -1
    outer loop
      vertex 2.22228 3.32588 -2
      vertex 1.88559 3.52769 -2
      vertex 0 13.3338 -2
    endloop
  endfacet
  facet normal 0 0 -1
    outer loop
      vertex 2.53757 3.09204 -2
      vertex 2.22228 3.32588 -2
      vertex 0 13.3338 -2
    endloop
  endfacet
  facet normal 0 0 -1
    outer loop
      vertex 2.82843 2.82843 -2
      vertex 2.53757 3.09204 -2
      vertex 0 13.3338 -2
    endloop
  endfacet
  facet normal 0 0 -1
    outer loop
      vertex 2.82843 2.82843 -2
      vertex 0 13.3338 -2
      vertex 23.0947 0 -2
    endloop
  endfacet
  facet normal 0 -0 -1
    outer loop
      vertex 2.82843 -2.82843 -2
      vertex 23.0947 0 -2
      vertex 0 -13.3338 -2
    endloop
  endfacet
  facet normal -0 -0 -1
    outer loop
      vertex -2.82843 -2.82843 -2
      vertex 0 -13.3338 -2
      vertex -23.0947 0 -2
    endloop
  endfacet
  facet normal -0 0 -1
    outer loop
      vertex -2.82843 2.82843 -2
      vertex -23.0947 0 -2
      vertex 0 13.3338 -2
    endloop
  endfacet
  facet normal -0.0490677 -0.998795 -0
    outer loop
      vertex 0 4 0
      vertex 0 4 -2
      vertex 0.392069 3.98074 -2
    endloop
  endfacet
  facet normal -0.14673 -0.989177 -0
    outer loop
      vertex 0.392069 3.98074 0
      vertex 0.392069 3.98074 -2
      vertex 0.780361 3.92314 -2
    endloop
  endfacet
  facet normal -0.24298 -0.970031 -0
    outer loop
      vertex 0.780361 3.92314 0
      vertex 0.780361 3.92314 -2
      vertex 1.16114 3.82776 -2
    endloop
  endfacet
  facet normal -0.33689 -0.941544 -0
    outer loop
      vertex 1.16114 3.82776 0
      vertex 1.16114 3.82776 -2
      vertex 1.53073 3.69552 -2
    endloop
  endfacet
  facet normal -0.427555 -0.903989 -0
    outer loop
      vertex 1.53073 3.69552 0
      vertex 1.53073 3.69552 -2
      vertex 1.88559 3.52769 -2
    endloop
  endfacet
  facet normal -0.514103 -0.857729 -0
    outer loop
      vertex 1.88559 3.52769 0
      vertex 1.88559 3.52769 -2
      vertex 2.22228 3.32588 -2
    endloop
  endfacet
  facet normal -0.595699 -0.803208 -0
    outer loop
      vertex 2.22228 3.32588 0
      vertex 2.22228 3.32588 -2
      vertex 2.53757 3.09204 -2
    endloop
  endfacet
  facet normal -0.671559 -0.740951 -0
    outer loop
      vertex 2.53757 3.09204 0
      vertex 2.53757 3.09204 -2
      vertex 2.82843 2.82843 -2
    endloop
  endfacet
  facet normal -0.740951 -0.671559 -0
    outer loop
      vertex 2.82843 2.82843 0
      vertex 2.82843 2.82843 -2
      vertex 3.09204 2.53757 -2
    endloop
  endfacet
  facet normal -0.803208 -0.595699 -0
    outer loop
      vertex 3.09204 2.53757 0
      vertex 3.09204 2.53757 -2
      vertex 3.32588 2.22228 -2
    endloop
  endfacet
  facet normal -0.857729 -0.514103 -0
    outer loop
      vertex 3.32588 2.22228 0
      vertex 3.32588 2.22228 -2
      vertex 3.52769 1.88559 -2
    endloop
  endfacet
  facet normal -0.903989 -0.427555 -0
    outer loop
      vertex 3.52769 1.88559 0
      vertex 3.52769 1.88559 -2
      vertex 3.69552 1.53073 -2
    endloop
  endfacet
  facet normal -0.941544 -0.33689 -0
    outer loop
      vertex 3.69552 1.53073 0
      vertex 3.69552 1.53073 -2
      vertex 3.82776 1.16114 -2
    endloop
  endfacet
  facet normal -0.970031 -0.24298 -0
    outer loop
      vertex 3.82776 1.16114 0
      vertex 3.82776 1.16114 -2
      vertex 3.92314 0.780361 -2
    endloop
  endfacet
  facet normal -0.989177 -0.14673 -0
    outer loop
      vertex 3.92314 0.780361 0
      vertex 3.92314 0.780361 -2
      vertex 3.98074 0.392069 -2
    endloop
  endfacet
  facet normal -0.998795 -0.0490677 -0
    outer loop
      vertex 3.98074 0.392069 0
      vertex 3.98074 0.392069 -2
      vertex 4 0 -2
    endloop
  endfacet
  facet normal -0.998795 0.0490677 0
    outer loop
      vertex 4 0 0
      vertex 4 0 -2
      vertex 3.98074 -0.392069 -2
    endloop
  endfacet
  facet normal -0.989177 0.14673 0
    outer loop
      vertex 3.98074 -0.392069 0
      vertex 3.98074 -0.392069 -2
      vertex 3.92314 -0.780361 -2
    endloop
  endfacet
  facet normal -0.970031 0.24298 0
    outer loop
      vertex 3.92314 -0.780361 0
      vertex 3.92314 -0.780361 -2
      vertex 3.82776 -1.16114 -2
    endloop
  endfacet
  facet normal -0.941544 0.33689 0
    outer loop
      vertex 3.82776 -1.16114 0
      vertex 3.82776 -1.16114 -2
      vertex 3.69552 -1.53073 -2
    endloop
  endfacet
  facet normal -0.903989 0.427555 0
    outer loop
      vertex 3.69552 -1.53073 0
      vertex 3.69552 -1.53073 -2
      vertex 3.52769 -1.88559 -2
    endloop
  endfacet
  facet normal -0.857729 0.514103 0
    outer loop
      vertex 3.52769 -1.88559 0
      vertex 3.52769 -1.88559 -2
      vertex 3.32588 -2.22228 -2
    endloop
  endfacet
  facet normal -0.803208 0.595699 0
    outer loop
      vertex 3.32588 -2.22228 0
      vertex 3.32588 -2.22228 -2
      vertex 3.09204 -2.53757 -2
    endloop
  endfacet
  facet normal -0.740951 0.671559 0
    outer loop
      vertex 3.09204 -2.53757 0
      vertex 3.09204 -2.53757 -2
      vertex 2.82843 -2.82843 -2
    endloop
  endfacet
  facet normal -0.671559 0.740951 0
    outer loop
      vertex 2.82843 -2.82843 0
      vertex 2.82843 -2.82843 -2
      vertex 2.53757 -3.09204 -2
    endloop
  endfacet
  facet normal -0.595699 0.803208 0
    outer loop
      vertex 2.53757 -3.09204 0
      vertex 2.53757 -3.09204 -2
      vertex 2.22228 -3.32588 -2
    endloop
  endfacet
  facet normal -0.514103 0.857729 0
    outer loop
      vertex 2.22228 -3.32588 0
      vertex 2.22228 -3.32588 -2
      vertex 1.88559 -3.52769 -2
    endloop
  endfacet
  facet normal -0.427555 0.903989 0
    outer loop
      vertex 1.88559 -3.52769 0
      vertex 1.88559 -3.52769 -2
      vertex 1.53073 -3.69552 -2
    endloop
  endfacet
  facet normal -0.33689 0.941544 0
    outer loop
      vertex 1.53073 -3.69552 0
      vertex 1.53073 -3.69552 -2
      vertex 1.16114 -3.82776 -2
    endloop
  endfacet
  facet normal -0.24298 0.970031 0
    outer loop
      vertex 1.16114 -3.82776 0
      vertex 1.16114 -3.82776 -2
      vertex 0.780361 -3.92314 -2
    endloop
  endfacet
  facet normal -0.14673 0.989177 0
    outer loop
      vertex 0.780361 -3.92314 0
      vertex 0.780361 -3.92314 -2
      vertex 0.392069 -3.98074 -2
    endloop
  endfacet
  facet normal -0.0490677 0.998795 0
    outer loop
      vertex 0.392069 -3.98074 0
      vertex 0.392069 -3.98074 -2
      vertex -0 -4 -2
    endloop
  endfacet
  facet normal 0.0490677 0.998795 0
    outer loop
      vertex -0 -4 0
      vertex -0 -4 -2
      vertex -0.392069 -3.98074 -2
    endloop
  endfacet
  facet normal 0.14673 0.989177 0
    outer loop
      vertex -0.392069 -3.98074 0
      vertex -0.392069 -3.98074 -2
      vertex -0.780361 -3.92314 -2
    endloop
  endfacet
  facet normal 0.24298 0.970031 0
    outer loop
      vertex -0.780361 -3.92314 0
      vertex -0.780361 -3.92314 -2
      vertex -1.16114 -3.82776 -2
    endloop
  endfacet
  facet normal 0.33689 0.941544 0
    outer loop
      vertex -1.16114 -3.82776 0
      vertex -1.16114 -3.82776 -2
      vertex -1.53073 -3.69552 -2
    endloop
  endfacet
  facet normal 0.427555 0.903989 0
    outer loop
      vertex -1.53073 -3.69552 0
      vertex -1.53073 -3.69552 -2
      vertex -1.88559 -3.52769 -2
    endloop
  endfacet
  facet normal 0.514103 0.857729 0
    outer loop
      vertex -1.88559 -3.52769 0
      vertex -1.88559 -3.52769 -2
      vertex -2.22228 -3.32588 -2
    endloop
  endfacet
  facet normal 0.595699 0.803208 0
    outer loop
      vertex -2.22228 -3.32588 0
      vertex -2.22228 -3.32588 -2
      vertex -2.53757 -3.09204 -2
    endloop
  endfacet
  facet normal 0.671559 0.740951 0
    outer loop
      vertex -2.53757 -3.09204 0
      vertex -2.53757 -3.09204 -2
      vertex -2.82843 -2.82843 -2
    endloop
  endfacet
  facet normal 0.740951 0.671559 0
    outer loop
      vertex -2.82843 -2.82843 0
      vertex -2.82843 -2.82843 -2
      vertex -3.09204 -2.53757 -2
    endloop
  endfacet
  facet normal 0.803208 0.595699 0
    outer loop
      vertex -3.09204 -2.53757 0
      vertex -3.09204 -2.53757 -2
      vertex -3.32588 -2.22228 -2
    endloop
  endfacet
  facet normal 0.857729 0.514103 0
    outer loop
      vertex -3.32588 -2.22228 0
      vertex -3.32588 -2.22228 -2
      vertex -3.52769 -1.88559 -2
    endloop
  endfacet
  facet normal 0.903989 0.427555 0
    outer loop
      vertex -3.52769 -1.88559 0
      vertex -3.52769 -1.88559 -2
      vertex -3.69552 -1.53073 -2
    endloop
  endfacet
  facet normal 0.941544 0.33689 0
    outer loop
      vertex -3.69552 -1.53073 0
      vertex -3.69552 -1.53073 -2
      vertex -3.82776 -1.16114 -2
    endloop
  endfacet
  facet normal 0.970031 0.24298 0
    outer loop
      vertex -3.82776 -1.16114 0
      vertex -3.82776 -1.16114 -2
      vertex -3.92314 -0.780361 -2
    endloop
  endfacet
  facet normal 0.989177 0.14673 0
    outer loop
      vertex -3.92314 -0.780361 0
      vertex -3.92314 -0.780361 -2
      vertex -3.98074 -0.392069 -2
    endloop
  endfacet
  facet normal 0.998795 0.0490677 0
    outer loop
      vertex -3.98074 -0.392069 0
      vertex -3.98074 -0.392069 -2
      vertex -4 -0 -2
    endloop
  endfacet
  facet normal 0.998795 -0.0490677 0
    outer loop
      vertex -4 -0 0
      vertex -4 -0 -2
      vertex -3.98074 0.392069 -2
    endloop
  endfacet
  facet normal 0.989177 -0.14673 0
    outer loop
      vertex -3.98074 0.392069 0
      vertex -3.98074 0.392069 -2
      vertex -3.92314 0.780361 -2
    endloop
  endfacet
  facet normal 0.970031 -0.24298 0
    outer loop
      vertex -3.92314 0.780361 0
      vertex -3.92314 0.780361 -2
      vertex -3.82776 1.16114 -2
    endloop
  endfacet
  facet normal 0.941544 -0.33689 0
    outer loop
      vertex -3.82776 1.16114 0
      vertex -3.82776 1.16114 -2
      vertex -3.69552 1.53073 -2
    endloop
  endfacet
  facet normal 0.903989 -0.427555 0
    outer loop
      vertex -3.69552 1.53073 0
      vertex -3.69552 1.53073 -2
      vertex -3.52769 1.88559 -2
    endloop
  endfacet
  facet normal 0.857729 -0.514103 0
    outer loop
      vertex -3.52769 1.88559 0
      vertex -3.52769 1.88559 -2
      vertex -3.32588 2.22228 -2
    endloop
  endfacet
  facet normal 0.803208 -0.595699 0
    outer loop
      vertex -3.32588 2.22228 0
      vertex -3.32588 2.22228 -2
      vertex -3.09204 2.53757 -2
    endloop
  endfacet
  facet normal 0.740951 -0.671559 0
    outer loop
      vertex -3.09204 2.53757 0
      vertex -3.09204 2.53757 -2
      vertex -2.82843 2.82843 -2
    endloop
  endfacet
  facet normal 0.671559 -0.740951 0
    outer loop
      vertex -2.82843 2.82843 0
      vertex -2.82843 2.82843 -2
      vertex -2.53757 3.09204 -2
    endloop
  endfacet
  facet normal 0.595699 -0.803208 0
    outer loop
      vertex -2.53757 3.09204 0
      vertex -2.53757 3.09204 -2
      vertex -2.22228 3.32588 -2
    endloop
  endfacet
  facet normal 0.514103 -0.857729 0
    outer loop
      vertex -2.22228 3.32588 0
      vertex -2.22228 3.32588 -2
      vertex -1.88559 3.52769 -2
    endloop
  endfacet
  facet normal 0.427555 -0.903989 0
    outer loop
      vertex -1.88559 3.52769 0
      vertex -1.88559 3.52769 -2
      vertex -1.53073 3.69552 -2
    endloop
  endfacet
  facet normal 0.33689 -0.941544 0
    outer loop
      vertex -1.53073 3.69552 0
      vertex -1.53073 3.69552 -2
      vertex -1.16114 3.82776 -2
    endloop
  endfacet
  facet normal 0.24298 -0.970031 0
    outer loop
      vertex -1.16114 3.82776 0
      vertex -1.16114 3.82776 -2
      vertex -0.780361 3.92314 -2
    endloop
  endfacet
  facet normal 0.14673 -0.989177 0
    outer loop
      vertex -0.780361 3.92314 0
      vertex -0.780361 3.92314 -2
      vertex -0.392069 3.98074 -2
    endloop
  endfacet
  facet normal 0.0490677 -0.998795 0
    outer loop
      vertex -0.392069 3.98074 0
      vertex -0.392069 3.98074 -2
      vertex 0 4 -2
    endloop
  endfacet
  facet normal -0.0490677 -0.998795 -0
    outer loop
      vertex 0.392069 3.98074 0
      vertex 0 4 0
      vertex 0.392069 3.98074 -2
    endloop
  endfacet
  facet normal -0.14673 -0.989177 -0
    outer loop
      vertex 0.780361 3.92314 0
      vertex 0.392069 3.98074 0
      vertex 0.780361 3.92314 -2
    endloop
  endfacet
  facet normal -0.24298 -0.970031 -0
    outer loop
      vertex 1.16114 3.82776 0
      vertex 0.780361 3.92314 0
      vertex 1.16114 3.82776 -2
    endloop
  endfacet
  facet normal -0.33689 -0.941544 -0
    outer loop
      vertex 1.53073 3.69552 0
      vertex 1.16114 3.82776 0
      vertex 1.53073 3.69552 -2
    endloop
  endfacet
  facet normal -0.427555 -0.903989 -0
    outer loop
      vertex 1.88559 3.52769 0
      vertex 1.53073 3.69552 0
      vertex 1.88559 3.52769 -2
    endloop
  endfacet
  facet normal -0.514103 -0.857729 -0
    outer loop
      vertex 2.22228 3.32588 0
      vertex 1.88559 3.52769 0
      vertex 2.22228 3.32588 -2
    endloop
  endfacet
  facet normal -0.595699 -0.803208 -0
    outer loop
      vertex 2.53757 3.09204 0
      vertex 2.22228 3.32588 0
      vertex 2.53757 3.09204 -2
    endloop
  endfacet
  facet normal -0.671559 -0.740951 -0
    outer loop
      vertex 2.82843 2.82843 0
      vertex 2.53757 3.09204 0
      vertex 2.82843 2.82843 -2
    endloop
  endfacet
  facet normal -0.740951 -0.671559 -0
    outer loop
      vertex 3.09204 2.53757 0
      vertex 2.82843 2.82843 0
      vertex 3.09204 2.53757 -2
    endloop
  endfacet
  facet normal -0.803208 -0.595699 -0
    outer loop
      vertex 3.32588 2.22228 0
      vertex 3.09204 2.53757 0
      vertex 3.32588 2.22228 -2
    endloop
  endfacet
  facet normal -0.857729 -0.514103 -0
    outer loop
      vertex 3.52769 1.88559 0
      vertex 3.32588 2.22228 0
      vertex 3.52769 1.88559 -2
    endloop
  endfacet
  facet normal -0.903989 -0.427555 -0
    outer loop
      vertex 3.69552 1.53073 0
      vertex 3.52769 1.88559 0
      vertex 3.69552 1.53073 -2
    endloop
  endfacet
  facet normal -0.941544 -0.33689 -0
    outer loop
      vertex 3.82776 1.16114 0
      vertex 3.69552 1.53073 0
      vertex 3.82776 1.16114 -2
    endloop
  endfacet
  facet normal -0.970031 -0.24298 -0
    outer loop
      vertex 3.92314 0.780361 0
      vertex 3.82776 1.16114 0
      vertex 3.92314 0.780361 -2
    endloop
  endfacet
  facet normal -0.989177 -0.14673 -0
    outer loop
      vertex 3.98074 0.392069 0
      vertex 3.92314 0.780361 0
      vertex 3.98074 0.392069 -2
    endloop
  endfacet
  facet normal -0.998795 -0.0490677 -0
    outer loop
      vertex 4 0 0
      vertex 3.98074 0.392069 0
      vertex 4 0 -2
    endloop
  endfacet
  facet normal -0.998795 0.0490677 0
    outer loop
      vertex 3.98074 -0.392069 0
      vertex 4 0 0
      vertex 3.98074 -0.392069 -2
    endloop
  endfacet
  facet normal -0.989177 0.14673 0
    outer loop
      vertex 3.92314 -0.780361 0
      vertex 3.98074 -0.392069 0
      vertex 3.92314 -0.780361 -2
    endloop
  endfacet
  facet normal -0.970031 0.24298 0
    outer loop
      vertex 3.82776 -1.16114 0
      vertex 3.92314 -0.780361 0
      vertex 3.82776 -1.16114 -2
    endloop
  endfacet
  facet normal -0.941544 0.33689 0
    outer loop
      vertex 3.69552 -1.53073 0
      vertex 3.82776 -1.16114 0
      vertex 3.69552 -1.53073 -2
    endloop
  endfacet
  facet normal -0.903989 0.427555 0
    outer loop
      vertex 3.52769 -1.88559 0
      vertex 3.69552 -1.53073 0
      vertex 3.52769 -1.88559 -2
    endloop
  endfacet
  facet normal -0.857729 0.514103 0
    outer loop
      vertex 3.32588 -2.22228 0
      vertex 3.52769 -1.88559 0
      vertex 3.32588 -2.22228 -2
    endloop
  endfacet
  facet normal -0.803208 0.595699 0
    outer loop
      vertex 3.09204 -2.53757 0
      vertex 3.32588 -2.22228 0
      vertex 3.09204 -2.53757 -2
    endloop
  endfacet
  facet normal -0.740951 0.671559 0
    outer loop
      vertex 2.82843 -2.82843 0
      vertex 3.09204 -2.53757 0
      vertex 2.82843 -2.82843 -2
    endloop
  endfacet
  facet normal -0.671559 0.740951 0
    outer loop
      vertex 2.53757 -3.09204 0
      vertex 2.82843 -2.82843 0
      vertex 2.53757 -3.09204 -2
    endloop
  endfacet
  facet normal -0.595699 0.803208 0
    outer loop
      vertex 2.22228 -3.32588 0
      vertex 2.53757 -3.09204 0
      vertex 2.22228 -3.32588 -2
    endloop
  endfacet
  facet normal -0.514103 0.857729 0
    outer loop
      vertex 1.88559 -3.52769 0
      vertex 2.22228 -3.32588 0
      vertex 1.88559 -3.52769 -2
    endloop
  endfacet
  facet normal -0.427555 0.903989 0
    outer loop
      vertex 1.53073 -3.69552 0
      vertex 1.88559 -3.52769 0
      vertex 1.53073 -3.69552 -2
    endloop
  endfacet
  facet normal -0.33689 0.941544 0
    outer loop
      vertex 1.16114 -3.82776 0
      vertex 1.53073 -3.69552 0
      vertex 1.16114 -3.82776 -2
    endloop
  endfacet
  facet normal -0.24298 0.970031 0
    outer loop
      vertex 0.780361 -3.92314 0
      vertex 1.16114 -3.82776 0
      vertex 0.780361 -3.92314 -2
    endloop
  endfacet
  facet normal -0.14673 0.989177 0
    outer loop
      vertex 0.392069 -3.98074 0
      vertex 0.780361 -3.92314 0
      vertex 0.392069 -3.98074 -2
    endloop
  endfacet
  facet normal -0.0490677 0.998795 0
    outer loop
      vertex -0 -4 0
      vertex 0.392069 -3.98074 0
      vertex -0 -4 -2
    endloop
  endfacet
  facet normal 0.0490677 0.998795 0
    outer loop
      vertex -0.392069 -3.98074 0
      vertex -0 -4 0
      vertex -0.392069 -3.98074 -2
    endloop
  endfacet
  facet normal 0.14673 0.989177 0
    outer loop
      vertex -0.780361 -3.92314 0
      vertex -0.392069 -3.98074 0
      vertex -0.780361 -3.92314 -2
    endloop
  endfacet
  facet normal 0.24298 0.970031 0
    outer loop
      vertex -1.16114 -3.82776 0
      vertex -0.780361 -3.92314 0
      vertex -1.16114 -3.82776 -2
    endloop
  endfacet
  facet normal 0.33689 0.941544 0
    outer loop
      vertex -1.53073 -3.69552 0
      vertex -1.16114 -3.82776 0
      vertex -1.53073 -3.69552 -2
    endloop
  endfacet
  facet normal 0.427555 0.903989 0
    outer loop
      vertex -1.88559 -3.52769 0
      vertex -1.53073 -3.69552 0
      vertex -1.88559 -3.52769 -2
    endloop
  endfacet
  facet normal 0.514103 0.857729 0
    outer loop
      vertex -2.22228 -3.32588 0
      vertex -1.88559 -3.52769 0
      vertex -2.22228 -3.32588 -2
    endloop
  endfacet
  facet normal 0.595699 0.803208 0
    outer loop
      vertex -2.53757 -3.09204 0
      vertex -2.22228 -3.32588 0
      vertex -2.53757 -3.09204 -2
    endloop
  endfacet
  facet normal 0.671559 0.740951 0
    outer loop
      vertex -2.82843 -2.82843 0
      vertex -2.53757 -3.09204 0
      vertex -2.82843 -2.82843 -2
    endloop
  endfacet
  facet normal 0.740951 0.671559 0
    outer loop
      vertex -3.09204 -2.53757 0
      vertex -2.82843 -2.82843 0
      vertex -3.09204 -2.53757 -2
    endloop
  endfacet
  facet normal 0.803208 0.595699 0
    outer loop
      vertex -3.32588 -2.22228 0
      vertex -3.09204 -2.53757 0
      vertex -3.32588 -2.22228 -2
    endloop
  endfacet
  facet normal 0.857729 0.514103 0
    outer loop
      vertex -3.52769 -1.88559 0
      vertex -3.32588 -2.22228 0
      vertex -3.52769 -1.88559 -2
    endloop
  endfacet
  facet normal 0.903989 0.427555 0
    outer loop
      vertex -3.69552 -1.53073 0
      vertex -3.52769 -1.88559 0
      vertex -3.69552 -1.53073 -2
    endloop
  endfacet
  facet normal 0.941544 0.33689 0
    outer loop
      vertex -3.82776 -1.16114 0
      vertex -3.69552 -1.53073 0
      vertex -3.82776 -1.16114 -2
    endloop
  endfacet
  facet normal 0.970031 0.24298 0
    outer loop
      vertex -3.92314 -0.780361 0
      vertex -3.82776 -1.16114 0
      vertex -3.92314 -0.780361 -2
    endloop
  endfacet
  facet normal 0.989177 0.14673 0
    outer loop
      vertex -3.98074 -0.392069 0
      vertex -3.92314 -0.780361 0
      vertex -3.98074 -0.392069 -2
    endloop
  endfacet
  facet normal 0.998795 0.0490677 0
    outer loop
      vertex -4 -0 0
      vertex -3.98074 -0.392069 0
      vertex -4 -0 -2
    endloop
  endfacet
  facet normal 0.998795 -0.0490677 0
    outer loop
      vertex -3.98074 0.392069 0
      vertex -4 -0 0
      vertex -3.98074 0.392069 -2
    endloop
  endfacet
  facet normal 0.989177 -0.14673 0
    outer loop
      vertex -3.92314 0.780361 0
      vertex -3.98074 0.392069 0
      vertex -3.92314 0.780361 -2
    endloop
  endfacet
  facet normal 0.970031 -0.24298 0
    outer loop
      vertex -3.82776 1.16114 0
      vertex -3.92314 0.780361 0
      vertex -3.82776 1.16114 -2
    endloop
  endfacet
  facet normal 0.941544 -0.33689 0
    outer loop
      vertex -3.69552 1.53073 0
      vertex -3.82776 1.16114 0
      vertex -3.69552 1.53073 -2
    endloop
  endfacet
  facet normal 0.903989 -0.427555 0
    outer loop
      vertex -3.52769 1.88559 0
      vertex -3.69552 1.53073 0
      vertex -3.52769 1.88559 -2
    endloop
  endfacet
  facet normal 0.857729 -0.514103 0
    outer loop
      vertex -3.32588 2.22228 0
      vertex -3.52769 1.88559 0
      vertex -3.32588 2.22228 -2
    endloop
  endfacet
  facet normal 0.803208 -0.595699 0
    outer loop
      vertex -3.09204 2.53757 0
      vertex -3.32588 2.22228 0
      vertex -3.09204 2.53757 -2
    endloop
  endfacet
  facet normal 0.740951 -0.671559 0
    outer loop
      vertex -2.82843 2.82843 0
      vertex -3.09204 2.53757 0
      vertex -2.82843 2.82843 -2
    endloop
  endfacet
  facet normal 0.671559 -0.740951 0
    outer loop
      vertex -2.53757 3.09204 0
      vertex -2.82843 2.82843 0
      vertex -2.53757 3.09204 -2
    endloop
  endfacet
  facet normal 0.595699 -0.803208 0
    outer loop
      vertex -2.22228 3.32588 0
      vertex -2.53757 3.09204 0
      vertex -2.22228 3.32588 -2
    endloop
  endfacet
  facet normal 0.514103 -0.857729 0
    outer loop
      vertex -1.88559 3.52769 0
      vertex -2.22228 3.32588 0
      vertex -1.88559 3.52769 -2
    endloop
  endfacet
  facet normal 0.427555 -0.903989 0
    outer loop
      vertex -1.53073 3.69552 0
      vertex -1.88559 3.52769 0
      vertex -1.53073 3.69552 -2
    endloop
  endfacet
  facet normal 0.33689 -0.941544 0
    outer loop
      vertex -1.16114 3.82776 0
      vertex -1.53073 3.69552 0
      vertex -1.16114 3.82776 -2
    endloop
  endfacet
  facet normal 0.24298 -0.970031 0
    outer loop
      vertex -0.780361 3.92314 0
      vertex -1.16114 3.82776 0
      vertex -0.780361 3.92314 -2
    endloop
  endfacet
  facet normal 0.14673 -0.989177 0
    outer loop
      vertex -0.392069 3.98074 0
      vertex -0.780361 3.92314 0
      vertex -0.392069 3.98074 -2
    endloop
  endfacet
  facet normal 0.0490677 -0.998795 0
    outer loop
      vertex 0 4 0
      vertex -0.392069 3.98074 0
      vertex 0 4 -2
    endloop
  endfacet
  facet normal 0 0 1
    outer loop
      vertex 2.82843 2.82843 0
      vertex 3.09204 2.53757 0
      vertex 22.7483 0 0
    endloop
  endfacet
  facet normal 0 0 1
    outer loop
      vertex 3.09204 2.53757 0
      vertex 3.32588 2.22228 0
      vertex 22.7483 0 0
    endloop
  endfacet
  facet normal 0 0 1
    outer loop
      vertex 3.32588 2.22228 0
      vertex 3.52769 1.88559 0
      vertex 22.7483 0 0
    endloop
  endfacet
  facet normal 0 0 1
    outer loop
      vertex 3.52769 1.88559 0
      vertex 3.69552 1.53073 0
      vertex 22.7483 0 0
    endloop
  endfacet
  facet normal 0 0 1
    outer loop
      vertex 3.69552 1.53073 0
      vertex 3.82776 1.16114 0
      vertex 22.7483 0 0
    endloop
  endfacet
  facet normal 0 0 1
    outer loop
      vertex 3.82776 1.16114 0
      vertex 3.92314 0.780361 0
      vertex 22.7483 0 0
    endloop
  endfacet
  facet normal 0 0 1
    outer loop
      vertex 3.92314 0.780361 0
      vertex 3.98074 0.392069 0
      vertex 22.7483 0 0
    endloop
  endfacet
  facet normal 0 0 1
    outer loop
      vertex 3.98074 0.392069 0
      vertex 4 0 0
      vertex 22.7483 0 0
    endloop
  endfacet
  facet normal -0 0 1
    outer loop
      vertex 4 0 0
      vertex 3.98074 -0.392069 0
      vertex 22.7483 0 0
    endloop
  endfacet
  facet normal -0 0 1
    outer loop
      vertex 3.98074 -0.392069 0
      vertex 3.92314 -0.780361 0
      vertex 22.7483 0 0
    endloop
  endfacet
  facet normal -0 0 1
    outer loop
      vertex 3.92314 -0.780361 0
      vertex 3.82776 -1.16114 0
      vertex 22.7483 0 0
    endloop
  endfacet
  facet normal -0 0 1
    outer loop
      vertex 3.82776 -1.16114 0
      vertex 3.69552 -1.53073 0
      vertex 22.7483 0 0
    endloop
  endfacet
  facet normal -0 0 1
    outer loop
      vertex 3.69552 -1.53073 0
      vertex 3.52769 -1.88559 0
      vertex 22.7483 0 0
    endloop
  endfacet
  facet normal -0 0 1
    outer loop
      vertex 3.52769 -1.88559 0
      vertex 3.32588 -2.22228 0
      vertex 22.7483 0 0
    endloop
  endfacet
  facet normal -0 0 1
    outer loop
      vertex 3.32588 -2.22228 0
      vertex 3.09204 -2.53757 0
      vertex 22.7483 0 0
    endloop
  endfacet
  facet normal -0 0 1
    outer loop
      vertex 3.09204 -2.53757 0
      vertex 2.82843 -2.82843 0
      vertex 22.7483 0 0
    endloop
  endfacet
  facet normal 0 0 1
    outer loop
      vertex 2.82843 -2.82843 0
      vertex 2.53757 -3.09204 0
      vertex 0 -13.1338 0
    endloop
  endfacet
  facet normal 0 0 1
    outer loop
      vertex 2.53757 -3.09204 0
      vertex 2.22228 -3.32588 0
      vertex 0 -13.1338 0
    endloop
  endfacet
  facet normal 0 0 1
    outer loop
      vertex 2.22228 -3.32588 0
      vertex 1.88559 -3.52769 0
      vertex 0 -13.1338 0
    endloop
  endfacet
  facet normal 0 0 1
    outer loop
      vertex 1.88559 -3.52769 0
      vertex 1.53073 -3.69552 0
      vertex 0 -13.1338 0
    endloop
  endfacet
  facet normal 0 0 1
    outer loop
      vertex 1.53073 -3.69552 0
      vertex 1.16114 -3.82776 0
      vertex 0 -13.1338 0
    endloop
  endfacet
  facet normal 0 0 1
    outer loop
      vertex 1.16114 -3.82776 0
      vertex 0.780361 -3.92314 0
      vertex 0 -13.1338 0
    endloop
  endfacet
  facet normal 0 0 1
    outer loop
      vertex 0.780361 -3.92314 0
      vertex 0.392069 -3.98074 0
      vertex 0 -13.1338 0
    endloop
  endfacet
  facet normal 0 0 1
    outer loop
      vertex 0.392069 -3.98074 0
      vertex -0 -4 0
      vertex 0 -13.1338 0
    endloop
  endfacet
  facet normal 0 0 1
    outer loop
      vertex -0 -4 0
      vertex -0.392069 -3.98074 0
      vertex 0 -13.1338 0
    endloop
  endfacet
  facet normal 0 0 1
    outer loop
      vertex -0.392069 -3.98074 0
      vertex -0.780361 -3.92314 0
      vertex 0 -13.1338 0
    endloop
  endfacet
  facet normal 0 0 1
    outer loop
      vertex -0.780361 -3.92314 0
      vertex -1.16114 -3.82776 0
      vertex 0 -13.1338 0
    endloop
  endfacet
  facet normal 0 0 1
    outer loop
      vertex -1.16114 -3.82776 0
      vertex -1.53073 -3.69552 0
      vertex 0 -13.1338 0
    endloop
  endfacet
  facet normal 0 0 1
    outer loop
      vertex -1.53073 -3.69552 0
      vertex -1.88559 -3.52769 0
      vertex 0 -13.1338 0
    endloop
  endfacet
  facet normal 0 0 1
    outer loop
      vertex -1.88559 -3.52769 0
      vertex -2.22228 -3.32588 0
      vertex 0 -13.1338 0
    endloop
  endfacet
  facet normal 0 0 1
    outer loop
      vertex -2.22228 -3.32588 0
      vertex -2.53757 -3.09204 0
      vertex 0 -13.1338 0
    endloop
  endfacet
  facet normal 0 0 1
    outer loop
      vertex -2.53757 -3.09204 0
      vertex -2.82843 -2.82843 0
      vertex 0 -13.1338 0
    endloop
  endfacet
  facet normal 0 0 1
    outer loop
      vertex -2.82843 -2.82843 0
      vertex -3.09204 -2.53757 0
      vertex -22.7483 0 0
    endloop
  endfacet
  facet normal 0 0 1
    outer loop
      vertex -3.09204 -2.53757 0
      vertex -3.32588 -2.22228 0
      vertex -22.7483 0 0
    endloop
  endfacet
  facet normal 0 0 1
    outer loop
      vertex -3.32588 -2.22228 0
      vertex -3.52769 -1.88559 0
      vertex -22.7483 0 0
    endloop
  endfacet
  facet normal 0 0 1
    outer loop
      vertex -3.52769 -1.88559 0
      vertex -3.69552 -1.53073 0
      vertex -22.7483 0 0
    endloop
  endfacet
  facet normal 0 0 1
    outer loop
      vertex -3.69552 -1.53073 0
      vertex -3.82776 -1.16114 0
      vertex -22.7483 0 0
    endloop
  endfacet
  facet normal 0 0 1
    outer loop
      vertex -3.82776 -1.16114 0
      vertex -3.92314 -0.780361 0
      vertex -22.7483 0 0
    endloop
  endfacet
  facet normal 0 0 1
    outer loop
      vertex -3.92314 -0.780361 0
      vertex -3.98074 -0.392069 0
      vertex -22.7483 0 0
    endloop
  endfacet
  facet normal 0 0 1
    outer loop
      vertex -3.98074 -0.392069 0
      vertex -4 -0 0
      vertex -22.7483 0 0
    endloop
  endfacet
  facet normal 0 -0 1
    outer loop
      vertex -4 -0 0
      vertex -3.98074 0.392069 0
      vertex -22.7483 0 0
    endloop
  endfacet
  facet normal 0 -0 1
    outer loop
      vertex -3.98074 0.392069 0
      vertex -3.92314 0.780361 0
      vertex -22.7483 0 0
    endloop
  endfacet
  facet normal 0 -0 1
    outer loop
      vertex -3.92314 0.780361 0
      vertex -3.82776 1.16114 0
      vertex -22.7483 0 0
    endloop
  endfacet
  facet normal 0 -0 1
    outer loop
      vertex -3.82776 1.16114 0
      vertex -3.69552 1.53073 0
      vertex -22.7483 0 0
    endloop
  endfacet
  facet normal 0 -0 1
    outer loop
      vertex -3.69552 1.53073 0
      vertex -3.52769 1.88559 0
      vertex -22.7483 0 0
    endloop
  endfacet
  facet normal 0 -0 1
    outer loop
      vertex -3.52769 1.88559 0
      vertex -3.32588 2.22228 0
      vertex -22.7483 0 0
    endloop
  endfacet
  facet normal 0 -0 1
    outer loop
      vertex -3.32588 2.22228 0
      vertex -3.09204 2.53757 0
      vertex -22.7483 0 0
    endloop
  endfacet
  facet normal 0 -0 1
    outer loop
      vertex -3.09204 2.53757 0
      vertex -2.82843 2.82843 0
      vertex -22.7483 0 0
    endloop
  endfacet
  facet normal 0 0 1
    outer loop
      vertex -2.82843 2.82843 0
      vertex -2.53757 3.09204 0
      vertex 0 13.1338 0
    endloop
  endfacet
  facet normal 0 0 1
    outer loop
      vertex -2.53757 3.09204 0
      vertex -2.22228 3.32588 0
      vertex 0 13.1338 0
    endloop
  endfacet
  facet normal 0 0 1
    outer loop
      vertex -2.22228 3.32588 0
      vertex -1.88559 3.52769 0
      vertex 0 13.1338 0
    endloop
  endfacet
  facet normal 0 0 1
    outer loop
      vertex -1.88559 3.52769 0
      vertex -1.53073 3.69552 0
      vertex 0 13.1338 0
    endloop
  endfacet
  facet normal 0 0 1
    outer loop
      vertex -1.53073 3.69552 0
      vertex -1.16114 3.82776 0
      vertex 0 13.1338 0
    endloop
  endfacet
  facet normal 0 0 1
    outer loop
      vertex -1.16114 3.82776 0
      vertex -0.780361 3.92314 0
      vertex 0 13.1338 0
    endloop
  endfacet
  facet normal 0 0 1
    outer loop
      vertex -0.780361 3.92314 0
      vertex -0.392069 3.98074 0
      vertex 0 13.1338 0
    endloop
  endfacet
  facet normal 0 0 1
    outer loop
      vertex -0.392069 3.98074 0
      vertex 0 4 0
      vertex 0 13.1338 0
    endloop
  endfacet
  facet normal -0 0 1
    outer loop
      vertex 0 4 0
      vertex 0.392069 3.98074 0
      vertex 0 13.1338 0
    endloop
  endfacet
  facet normal -0 -0 1
    outer loop
      vertex 0.392069 3.98074 0
      vertex 0.780361 3.92314 0
      vertex 0 13.1338 0
    endloop
  endfacet
  facet normal -0 -0 1
    outer loop
      vertex 0.780361 3.92314 0
      vertex 1.16114 3.82776 0
      vertex 0 13.1338 0
    endloop
  endfacet
  facet normal -0 -0 1
    outer loop
      vertex 1.16114 3.82776 0
      vertex 1.53073 3.69552 0
      vertex 0 13.1338 0
    endloop
  endfacet
  facet normal -0 -0 1
    outer loop
      vertex 1.53073 3.69552 0
      vertex 1.88559 3.52769 0
      vertex 0 13.1338 0
    endloop
  endfacet
  facet normal -0 -0 1
    outer loop
      vertex 1.88559 3.52769 0
      vertex 2.22228 3.32588 0
      vertex 0 13.1338 0
    endloop
  endfacet
  facet normal -0 -0 1
    outer loop
      vertex 2.22228 3.32588 0
      vertex 2.53757 3.09204 0
      vertex 0 13.1338 0
    endloop
  endfacet
  facet normal -0 -0 1
    outer loop
      vertex 2.53757 3.09204 0
      vertex 2.82843 2.82843 0
      vertex 0 13.1338 0
    endloop
  endfacet
  facet normal -0 -0 1
    outer loop
      vertex 2.82843 2.82843 0
      vertex 22.7483 0 0
      vertex 0 13.1338 0
    endloop
  endfacet
  facet normal -0 0 1
    outer loop
      vertex 2.82843 -2.82843 0
      vertex 0 -13.1338 0
      vertex 22.7483 0 0
    endloop
  endfacet
  facet normal 0 0 1
    outer loop
      vertex -2.82843 -2.82843 0
      vertex -22.7483 0 0
      vertex 0 -13.1338 0
    endloop
  endfacet
  facet normal 0 -0 1
    outer loop
      vertex -2.82843 2.82843 0
      vertex 0 13.1338 0
      vertex -22.7483 0 0
    endloop
  endfacet
  facet normal 0.377964 -0.654654 0.654654
    outer loop
      vertex 0 0 14.4338
      vertex 0 -14.4338 0
      vertex 25 0 0
    endloop
  endfacet
  facet normal -0.377964 -0.654654 0.654654
    outer loop
      vertex 0 0 14.4338
      vertex -25 0 0
      vertex 0 -14.4338 0
    endloop
  endfacet
  facet normal -0.377964 0.654654 0.654654
    outer loop
      vertex 0 0 14.4338
      vertex 0 14.4338 0
      vertex -25 0 0
    endloop
  endfacet
  facet normal 0.377964 0.654654 0.654654
    outer loop
      vertex 0 0 14.4338
      vertex 25 0 0
      vertex 0 14.4338 0
    endloop
  endfacet
  facet normal 0.304997 -0.528271 -0.792406
    outer loop
      vertex 23.9608 0 -0.4
      vertex 25 0 0
      vertex 0 -14.4338 0
    endloop
  endfacet
  facet normal -0.304997 -0.528271 -0.792406
    outer loop
      vertex 0 -13.8338 -0.4
      vertex 0 -14.4338 0
      vertex -25 0 0
    endloop
  endfacet
  facet normal -0.304997 0.528271 -0.792406
    outer loop
      vertex -23.9608 0 -0.4
      vertex -25 0 0
      vertex 0 14.4338 0
    endloop
  endfacet
  facet normal 0.304997 0.528271 -0.792406
    outer loop
      vertex 0 13.8338 -0.4
      vertex 0 14.4338 0
      vertex 25 0 0
    endloop
  endfacet
  facet normal 0.304997 -0.528271 -0.792406
    outer loop
      vertex 0 -13.8338 -0.4
      vertex 23.9608 0 -0.4
      vertex 0 -14.4338 0
    endloop
  endfacet
  facet normal -0.304997 -0.528271 -0.792406
    outer loop
      vertex -23.9608 0 -0.4
      vertex 0 -13.8338 -0.4
      vertex -25 0 0
    endloop
  endfacet
  facet normal -0.304997 0.528271 -0.792406
    outer loop
      vertex 0 13.8338 -0.4
      vertex -23.9608 0 -0.4
      vertex 0 14.4338 0
    endloop
  endfacet
  facet normal 0.304997 0.528271 -0.792406
    outer loop
      vertex 23.9608 0 -0.4
      vertex 0 13.8338 -0.4
      vertex 25 0 0
    endloop
  endfacet
  facet normal 0.5 -0.866025 0
    outer loop
      vertex 23.9608 0 -1.5
      vertex 23.9608 0 -0.4
      vertex 0 -13.8338 -0.4
    endloop
  endfacet
  facet normal -0.5 -0.866025 0
    outer loop
      vertex 0 -13.8338 -1.5
      vertex 0 -13.8338 -0.4
      vertex -23.9608 0 -0.4
    endloop
  endfacet
  facet normal -0.5 0.866025 0
    outer loop
      vertex -23.9608 0 -1.5
      vertex -23.9608 0 -0.4
      vertex 0 13.8338 -0.4
    endloop
  endfacet
  facet normal 0.5 0.866025 -0
    outer loop
      vertex 0 13.8338 -1.5
      vertex 0 13.8338 -0.4
      vertex 23.9608 0 -0.4
    endloop
  endfacet
  facet normal 0.5 -0.866025 0
    outer loop
      vertex 0 -13.8338 -1.5
      vertex 23.9608 0 -1.5
      vertex 0 -13.8338 -0.4
    endloop
  endfacet
  facet normal -0.5 -0.866025 0
    outer loop
      vertex -23.9608 0 -1.5
      vertex 0 -13.8338 -1.5
      vertex -23.9608 0 -0.4
    endloop
  endfacet
  facet normal -0.5 0.866025 0
    outer loop
      vertex 0 13.8338 -1.5
      vertex -23.9608 0 -1.5
      vertex 0 13.8338 -0.4
    endloop
  endfacet
  facet normal 0.5 0.866025 -0
    outer loop
      vertex 23.9608 0 -1.5
      vertex 0 13.8338 -1.5
      vertex 23.9608 0 -0.4
    endloop
  endfacet
  facet normal 0.377964 -0.654654 -0.654654
    outer loop
      vertex 23.0947 0 -2
      vertex 23.9608 0 -1.5
      vertex 0 -13.8338 -1.5
    endloop
  endfacet
  facet normal -0.377964 -0.654654 -0.654654
    outer loop
      vertex 0 -13.3338 -2
      vertex 0 -13.8338 -1.5
      vertex -23.9608 0 -1.5
    endloop
  endfacet
  facet normal -0.377964 0.654654 -0.654654
    outer loop
      vertex -23.0947 0 -2
      vertex -23.9608 0 -1.5
      vertex 0 13.8338 -1.5
    endloop
  endfacet
  facet normal 0.377964 0.654654 -0.654654
    outer loop
      vertex 0 13.3338 -2
      vertex 0 13.8338 -1.5
      vertex 23.9608 0 -1.5
    endloop
  endfacet
  facet normal 0.377964 -0.654654 -0.654654
    outer loop
      vertex 0 -13.3338 -2
      vertex 23.0947 0 -2
      vertex 0 -13.8338 -1.5
    endloop
  endfacet
  facet normal -0.377964 -0.654654 -0.654654
    outer loop
      vertex -23.0947 0 -2
      vertex 0 -13.3338 -2
      vertex -23.9608 0 -1.5
    endloop
  endfacet
  facet normal -0.377964 0.654654 -0.654654
    outer loop
      vertex 0 13.3338 -2
      vertex -23.0947 0 -2
      vertex 0 13.8338 -1.5
    endloop
  endfacet
  facet normal 0.377964 0.654654 -0.654654
    outer loop
      vertex 23.0947 0 -2
      vertex 0 13.3338 -2
      vertex 23.9608 0 -1.5
    endloop
  endfacet
endsolid OpenSCAD_Model
