solid OpenSCAD_Model
  facet normal -1 0 0
    outer loop
      vertex -82 28.4752 -20.1539
      vertex -82 27.6752 -18.8
      vertex -82 28.4752 -18
    endloop
  endfacet
  facet normal 0 -0.860929 -0.508726
    outer loop
      vertex -82 28.4752 -20.1539
      vertex -62 27.6752 -18.8
      vertex -82 27.6752 -18.8
    endloop
  endfacet
  facet normal 0 -0.860929 -0.508726
    outer loop
      vertex -62 27.6752 -18.8
      vertex -82 28.4752 -20.1539
      vertex -62 28.4752 -20.1539
    endloop
  endfacet
  facet normal 0 -0.707111 0.707103
    outer loop
      vertex -82 27.6752 -18.8
      vertex -62 28.4752 -18
      vertex -82 28.4752 -18
    endloop
  endfacet
  facet normal 0 -0.707111 0.707103
    outer loop
      vertex -62 28.4752 -18
      vertex -82 27.6752 -18.8
      vertex -62 27.6752 -18.8
    endloop
  endfacet
  facet normal 1 0 0
    outer loop
      vertex -62 28.4752 -18
      vertex -62 27.6752 -18.8
      vertex -62 28.4752 -20.1539
    endloop
  endfacet
  facet normal -1 -0 0
    outer loop
      vertex -82 -27.6752 -18.8
      vertex -82 -28.4752 -20.1539
      vertex -82 -28.4752 -18
    endloop
  endfacet
  facet normal 0 0.707111 0.707103
    outer loop
      vertex -62 -27.6752 -18.8
      vertex -82 -28.4752 -18
      vertex -62 -28.4752 -18
    endloop
  endfacet
  facet normal 0 0.707111 0.707103
    outer loop
      vertex -82 -28.4752 -18
      vertex -62 -27.6752 -18.8
      vertex -82 -27.6752 -18.8
    endloop
  endfacet
  facet normal 0 0.860929 -0.508726
    outer loop
      vertex -62 -28.4752 -20.1539
      vertex -82 -27.6752 -18.8
      vertex -62 -27.6752 -18.8
    endloop
  endfacet
  facet normal 0 0.860929 -0.508726
    outer loop
      vertex -82 -27.6752 -18.8
      vertex -62 -28.4752 -20.1539
      vertex -82 -28.4752 -20.1539
    endloop
  endfacet
  facet normal 1 0 0
    outer loop
      vertex -62 -28.4752 -18
      vertex -62 -28.4752 -20.1539
      vertex -62 -27.6752 -18.8
    endloop
  endfacet
  facet normal -1 0 0
    outer loop
      vertex -10 28.4752 -20.1539
      vertex -10 27.6752 -18.8
      vertex -10 28.4752 -18
    endloop
  endfacet
  facet normal 0 -0.860929 -0.508726
    outer loop
      vertex -10 28.4752 -20.1539
      vertex 10 27.6752 -18.8
      vertex -10 27.6752 -18.8
    endloop
  endfacet
  facet normal 0 -0.860929 -0.508726
    outer loop
      vertex 10 27.6752 -18.8
      vertex -10 28.4752 -20.1539
      vertex 10 28.4752 -20.1539
    endloop
  endfacet
  facet normal 0 -0.707111 0.707103
    outer loop
      vertex -10 27.6752 -18.8
      vertex 10 28.4752 -18
      vertex -10 28.4752 -18
    endloop
  endfacet
  facet normal 0 -0.707111 0.707103
    outer loop
      vertex 10 28.4752 -18
      vertex -10 27.6752 -18.8
      vertex 10 27.6752 -18.8
    endloop
  endfacet
  facet normal 1 0 0
    outer loop
      vertex 10 28.4752 -18
      vertex 10 27.6752 -18.8
      vertex 10 28.4752 -20.1539
    endloop
  endfacet
  facet normal -1 -0 0
    outer loop
      vertex -10 -27.6752 -18.8
      vertex -10 -28.4752 -20.1539
      vertex -10 -28.4752 -18
    endloop
  endfacet
  facet normal 0 0.707111 0.707103
    outer loop
      vertex 10 -27.6752 -18.8
      vertex -10 -28.4752 -18
      vertex 10 -28.4752 -18
    endloop
  endfacet
  facet normal 0 0.707111 0.707103
    outer loop
      vertex -10 -28.4752 -18
      vertex 10 -27.6752 -18.8
      vertex -10 -27.6752 -18.8
    endloop
  endfacet
  facet normal 0 0.860929 -0.508726
    outer loop
      vertex 10 -28.4752 -20.1539
      vertex -10 -27.6752 -18.8
      vertex 10 -27.6752 -18.8
    endloop
  endfacet
  facet normal 0 0.860929 -0.508726
    outer loop
      vertex -10 -27.6752 -18.8
      vertex 10 -28.4752 -20.1539
      vertex -10 -28.4752 -20.1539
    endloop
  endfacet
  facet normal 1 0 0
    outer loop
      vertex 10 -28.4752 -18
      vertex 10 -28.4752 -20.1539
      vertex 10 -27.6752 -18.8
    endloop
  endfacet
  facet normal -1 0 0
    outer loop
      vertex 62 28.4752 -20.1539
      vertex 62 27.6752 -18.8
      vertex 62 28.4752 -18
    endloop
  endfacet
  facet normal 0 -0.860929 -0.508726
    outer loop
      vertex 62 28.4752 -20.1539
      vertex 82 27.6752 -18.8
      vertex 62 27.6752 -18.8
    endloop
  endfacet
  facet normal 0 -0.860929 -0.508726
    outer loop
      vertex 82 27.6752 -18.8
      vertex 62 28.4752 -20.1539
      vertex 82 28.4752 -20.1539
    endloop
  endfacet
  facet normal 0 -0.707111 0.707103
    outer loop
      vertex 62 27.6752 -18.8
      vertex 82 28.4752 -18
      vertex 62 28.4752 -18
    endloop
  endfacet
  facet normal 0 -0.707111 0.707103
    outer loop
      vertex 82 28.4752 -18
      vertex 62 27.6752 -18.8
      vertex 82 27.6752 -18.8
    endloop
  endfacet
  facet normal 1 0 0
    outer loop
      vertex 82 28.4752 -18
      vertex 82 27.6752 -18.8
      vertex 82 28.4752 -20.1539
    endloop
  endfacet
  facet normal -1 -0 0
    outer loop
      vertex 62 -27.6752 -18.8
      vertex 62 -28.4752 -20.1539
      vertex 62 -28.4752 -18
    endloop
  endfacet
  facet normal 0 0.707111 0.707103
    outer loop
      vertex 82 -27.6752 -18.8
      vertex 62 -28.4752 -18
      vertex 82 -28.4752 -18
    endloop
  endfacet
  facet normal 0 0.707111 0.707103
    outer loop
      vertex 62 -28.4752 -18
      vertex 82 -27.6752 -18.8
      vertex 62 -27.6752 -18.8
    endloop
  endfacet
  facet normal 0 0.860929 -0.508726
    outer loop
      vertex 82 -28.4752 -20.1539
      vertex 62 -27.6752 -18.8
      vertex 82 -27.6752 -18.8
    endloop
  endfacet
  facet normal 0 0.860929 -0.508726
    outer loop
      vertex 62 -27.6752 -18.8
      vertex 82 -28.4752 -20.1539
      vertex 62 -28.4752 -20.1539
    endloop
  endfacet
  facet normal 1 0 0
    outer loop
      vertex 82 -28.4752 -18
      vertex 82 -28.4752 -20.1539
      vertex 82 -27.6752 -18.8
    endloop
  endfacet
  facet normal -0.866029 -0.499994 -0
    outer loop
      vertex -142.847 8.35641 -18.1072
      vertex -142.847 8.35641 -19.9725
      vertex -142.5 7.75641 -18.8
    endloop
  endfacet
  facet normal 0.353556 -0.612377 0.707102
    outer loop
      vertex -125.526 18.3564 -18.1072
      vertex -142.5 7.75641 -18.8
      vertex -125.18 17.7564 -18.8
    endloop
  endfacet
  facet normal 0.353556 -0.612377 0.707101
    outer loop
      vertex -142.5 7.75641 -18.8
      vertex -125.526 18.3564 -18.1072
      vertex -142.847 8.35641 -18.1072
    endloop
  endfacet
  facet normal 0.430465 -0.745587 -0.508725
    outer loop
      vertex -125.526 18.3564 -19.9725
      vertex -142.5 7.75641 -18.8
      vertex -142.847 8.35641 -19.9725
    endloop
  endfacet
  facet normal 0.430464 -0.745586 -0.508726
    outer loop
      vertex -142.5 7.75641 -18.8
      vertex -125.526 18.3564 -19.9725
      vertex -125.18 17.7564 -18.8
    endloop
  endfacet
  facet normal 0.866029 0.499993 0
    outer loop
      vertex -125.18 17.7564 -18.8
      vertex -125.526 18.3564 -19.9725
      vertex -125.526 18.3564 -18.1072
    endloop
  endfacet
  facet normal 0.866029 -0.499993 0
    outer loop
      vertex -125.526 -18.3564 -18.1072
      vertex -125.526 -18.3564 -19.9725
      vertex -125.18 -17.7564 -18.8
    endloop
  endfacet
  facet normal 0.353556 0.612377 0.707102
    outer loop
      vertex -142.5 -7.75641 -18.8
      vertex -125.526 -18.3564 -18.1072
      vertex -125.18 -17.7564 -18.8
    endloop
  endfacet
  facet normal 0.353556 0.612377 0.707101
    outer loop
      vertex -125.526 -18.3564 -18.1072
      vertex -142.5 -7.75641 -18.8
      vertex -142.847 -8.35641 -18.1072
    endloop
  endfacet
  facet normal 0.430464 0.745586 -0.508726
    outer loop
      vertex -125.526 -18.3564 -19.9725
      vertex -142.5 -7.75641 -18.8
      vertex -125.18 -17.7564 -18.8
    endloop
  endfacet
  facet normal 0.430465 0.745587 -0.508725
    outer loop
      vertex -142.5 -7.75641 -18.8
      vertex -125.526 -18.3564 -19.9725
      vertex -142.847 -8.35641 -19.9725
    endloop
  endfacet
  facet normal -0.866029 0.499994 0
    outer loop
      vertex -142.5 -7.75641 -18.8
      vertex -142.847 -8.35641 -19.9725
      vertex -142.847 -8.35641 -18.1072
    endloop
  endfacet
  facet normal -0.866029 0.499993 0
    outer loop
      vertex 125.526 18.3564 -19.9725
      vertex 125.18 17.7564 -18.8
      vertex 125.526 18.3564 -18.1072
    endloop
  endfacet
  facet normal -0.430464 -0.745586 -0.508726
    outer loop
      vertex 125.526 18.3564 -19.9725
      vertex 142.5 7.75641 -18.8
      vertex 125.18 17.7564 -18.8
    endloop
  endfacet
  facet normal -0.430465 -0.745587 -0.508725
    outer loop
      vertex 142.5 7.75641 -18.8
      vertex 125.526 18.3564 -19.9725
      vertex 142.847 8.35641 -19.9725
    endloop
  endfacet
  facet normal -0.353556 -0.612377 0.707101
    outer loop
      vertex 125.526 18.3564 -18.1072
      vertex 142.5 7.75641 -18.8
      vertex 142.847 8.35641 -18.1072
    endloop
  endfacet
  facet normal -0.353556 -0.612377 0.707102
    outer loop
      vertex 142.5 7.75641 -18.8
      vertex 125.526 18.3564 -18.1072
      vertex 125.18 17.7564 -18.8
    endloop
  endfacet
  facet normal 0.866029 -0.499994 0
    outer loop
      vertex 142.847 8.35641 -18.1072
      vertex 142.5 7.75641 -18.8
      vertex 142.847 8.35641 -19.9725
    endloop
  endfacet
  facet normal 0.866029 0.499994 -0
    outer loop
      vertex 142.847 -8.35641 -19.9725
      vertex 142.5 -7.75641 -18.8
      vertex 142.847 -8.35641 -18.1072
    endloop
  endfacet
  facet normal -0.353556 0.612377 0.707101
    outer loop
      vertex 142.5 -7.75641 -18.8
      vertex 125.526 -18.3564 -18.1072
      vertex 142.847 -8.35641 -18.1072
    endloop
  endfacet
  facet normal -0.353556 0.612377 0.707102
    outer loop
      vertex 125.526 -18.3564 -18.1072
      vertex 142.5 -7.75641 -18.8
      vertex 125.18 -17.7564 -18.8
    endloop
  endfacet
  facet normal -0.430465 0.745587 -0.508725
    outer loop
      vertex 125.526 -18.3564 -19.9725
      vertex 142.5 -7.75641 -18.8
      vertex 142.847 -8.35641 -19.9725
    endloop
  endfacet
  facet normal -0.430464 0.745586 -0.508726
    outer loop
      vertex 142.5 -7.75641 -18.8
      vertex 125.526 -18.3564 -19.9725
      vertex 125.18 -17.7564 -18.8
    endloop
  endfacet
  facet normal -0.866029 -0.499993 -0
    outer loop
      vertex 125.526 -18.3564 -18.1072
      vertex 125.18 -17.7564 -18.8
      vertex 125.526 -18.3564 -19.9725
    endloop
  endfacet
  facet normal 0 0 1
    outer loop
      vertex -36 18.4752 0
      vertex -76 0 0
      vertex -68 0 0
    endloop
  endfacet
  facet normal 0 -0 1
    outer loop
      vertex -76 0 0
      vertex -36 18.4752 0
      vertex -108 18.4752 0
    endloop
  endfacet
  facet normal -0 0 1
    outer loop
      vertex -76 0 0
      vertex -36 -18.4752 0
      vertex -68 0 0
    endloop
  endfacet
  facet normal 0 0 1
    outer loop
      vertex -36 -18.4752 0
      vertex -76 0 0
      vertex -108 -18.4752 0
    endloop
  endfacet
  facet normal 0 0 1
    outer loop
      vertex 108 18.4752 0
      vertex 68 0 0
      vertex 76 0 0
    endloop
  endfacet
  facet normal 0 -0 1
    outer loop
      vertex 68 0 0
      vertex 108 18.4752 0
      vertex 36 18.4752 0
    endloop
  endfacet
  facet normal -0 0 1
    outer loop
      vertex 68 0 0
      vertex 108 -18.4752 0
      vertex 76 0 0
    endloop
  endfacet
  facet normal 0 0 1
    outer loop
      vertex 108 -18.4752 0
      vertex 68 0 0
      vertex 36 -18.4752 0
    endloop
  endfacet
  facet normal 0 0 -1
    outer loop
      vertex 31.5 -14.4752 0
      vertex 40.5 -2.5 0
      vertex 40.5 -14.4752 0
    endloop
  endfacet
  facet normal -0 0 -1
    outer loop
      vertex 40.5 -2.5 0
      vertex 31.5 -14.4752 0
      vertex 31.5 -2.5 0
    endloop
  endfacet
  facet normal 0 0 -1
    outer loop
      vertex 31.5 2.5 0
      vertex 40.5 14.4752 0
      vertex 40.5 2.5 0
    endloop
  endfacet
  facet normal -0 0 -1
    outer loop
      vertex 40.5 14.4752 0
      vertex 31.5 2.5 0
      vertex 31.5 14.4752 0
    endloop
  endfacet
  facet normal 0 0 -1
    outer loop
      vertex -40.5 -14.4752 0
      vertex -31.5 -2.5 0
      vertex -31.5 -14.4752 0
    endloop
  endfacet
  facet normal -0 0 -1
    outer loop
      vertex -31.5 -2.5 0
      vertex -40.5 -14.4752 0
      vertex -40.5 -2.5 0
    endloop
  endfacet
  facet normal 0 0 -1
    outer loop
      vertex -40.5 2.5 0
      vertex -31.5 14.4752 0
      vertex -31.5 2.5 0
    endloop
  endfacet
  facet normal -0 0 -1
    outer loop
      vertex -31.5 14.4752 0
      vertex -40.5 2.5 0
      vertex -40.5 14.4752 0
    endloop
  endfacet
  facet normal 0 0 -1
    outer loop
      vertex 103.5 -2.5 0
      vertex 112.5 -11.8771 0
      vertex 108 -14.4752 0
    endloop
  endfacet
  facet normal 0 0 -1
    outer loop
      vertex 103.5 -2.5 0
      vertex 108 -14.4752 0
      vertex 103.5 -14.4752 0
    endloop
  endfacet
  facet normal 0 0 -1
    outer loop
      vertex 112.5 -11.8771 0
      vertex 103.5 -2.5 0
      vertex 112.5 -2.5 0
    endloop
  endfacet
  facet normal 0 0 -1
    outer loop
      vertex 103.5 2.5 0
      vertex 112.5 11.8771 0
      vertex 112.5 2.5 0
    endloop
  endfacet
  facet normal -0 0 -1
    outer loop
      vertex 112.5 11.8771 0
      vertex 103.5 2.5 0
      vertex 108 14.4752 0
    endloop
  endfacet
  facet normal -0 0 -1
    outer loop
      vertex 108 14.4752 0
      vertex 103.5 2.5 0
      vertex 103.5 14.4752 0
    endloop
  endfacet
  facet normal 0 0 -1
    outer loop
      vertex -103.5 2.5 0
      vertex -108 14.4752 0
      vertex -103.5 14.4752 0
    endloop
  endfacet
  facet normal 0 0 -1
    outer loop
      vertex -112.5 11.8771 0
      vertex -103.5 2.5 0
      vertex -112.5 2.5 0
    endloop
  endfacet
  facet normal 0 0 -1
    outer loop
      vertex -103.5 2.5 0
      vertex -112.5 11.8771 0
      vertex -108 14.4752 0
    endloop
  endfacet
  facet normal 0 0 -1
    outer loop
      vertex -108 -14.4752 0
      vertex -103.5 -2.5 0
      vertex -103.5 -14.4752 0
    endloop
  endfacet
  facet normal 0 0 -1
    outer loop
      vertex -112.5 -11.8771 0
      vertex -103.5 -2.5 0
      vertex -108 -14.4752 0
    endloop
  endfacet
  facet normal -0 0 -1
    outer loop
      vertex -103.5 -2.5 0
      vertex -112.5 -11.8771 0
      vertex -112.5 -2.5 0
    endloop
  endfacet
  facet normal 0 0 1
    outer loop
      vertex 36 18.4752 0
      vertex -4 0 0
      vertex 4 0 0
    endloop
  endfacet
  facet normal 0 -0 1
    outer loop
      vertex -4 0 0
      vertex 36 18.4752 0
      vertex -36 18.4752 0
    endloop
  endfacet
  facet normal -0 0 1
    outer loop
      vertex -4 0 0
      vertex 36 -18.4752 0
      vertex 4 0 0
    endloop
  endfacet
  facet normal 0 0 1
    outer loop
      vertex 36 -18.4752 0
      vertex -4 0 0
      vertex -36 -18.4752 0
    endloop
  endfacet
  facet normal -1 0 0
    outer loop
      vertex -31.5 18.4752 -2
      vertex -31.5 2.5 0
      vertex -31.5 14.4752 0
    endloop
  endfacet
  facet normal -1 0 0
    outer loop
      vertex -31.5 18.4752 -2
      vertex -31.5 -2.5 0
      vertex -31.5 2.5 0
    endloop
  endfacet
  facet normal -1 0 0
    outer loop
      vertex -31.5 -18.4752 -2
      vertex -31.5 -2.5 0
      vertex -31.5 18.4752 -2
    endloop
  endfacet
  facet normal -1 -0 0
    outer loop
      vertex -31.5 -2.5 0
      vertex -31.5 -18.4752 -2
      vertex -31.5 -14.4752 0
    endloop
  endfacet
  facet normal 0 -0.447214 -0.894427
    outer loop
      vertex -40.5 14.4752 0
      vertex -31.5 18.4752 -2
      vertex -31.5 14.4752 0
    endloop
  endfacet
  facet normal -0 -0.447214 -0.894427
    outer loop
      vertex -31.5 18.4752 -2
      vertex -40.5 14.4752 0
      vertex -40.5 18.4752 -2
    endloop
  endfacet
  facet normal 0 0 -1
    outer loop
      vertex -112.5 -15.8771 -2
      vertex -140 0 -2
      vertex -112.5 15.8771 -2
    endloop
  endfacet
  facet normal 0 0 -1
    outer loop
      vertex -140 0 -2
      vertex -112.5 -15.8771 -2
      vertex -108 -18.4752 -2
    endloop
  endfacet
  facet normal 0 0 -1
    outer loop
      vertex -108 18.4752 -2
      vertex -112.5 15.8771 -2
      vertex -140 0 -2
    endloop
  endfacet
  facet normal 0 0 -1
    outer loop
      vertex 140 0 -2
      vertex 108 -18.4752 -2
      vertex 112.5 -15.8771 -2
    endloop
  endfacet
  facet normal 0 0 -1
    outer loop
      vertex 112.5 15.8771 -2
      vertex 140 0 -2
      vertex 112.5 -15.8771 -2
    endloop
  endfacet
  facet normal 0 0 -1
    outer loop
      vertex 140 0 -2
      vertex 112.5 15.8771 -2
      vertex 108 18.4752 -2
    endloop
  endfacet
  facet normal 0 0 -1
    outer loop
      vertex -31.5 -18.4752 -2
      vertex 31.5 18.4752 -2
      vertex 31.5 -18.4752 -2
    endloop
  endfacet
  facet normal -0 0 -1
    outer loop
      vertex 31.5 18.4752 -2
      vertex -31.5 -18.4752 -2
      vertex -31.5 18.4752 -2
    endloop
  endfacet
  facet normal 0 0 -1
    outer loop
      vertex 40.5 -18.4752 -2
      vertex 103.5 18.4752 -2
      vertex 103.5 -18.4752 -2
    endloop
  endfacet
  facet normal -0 0 -1
    outer loop
      vertex 103.5 18.4752 -2
      vertex 40.5 -18.4752 -2
      vertex 40.5 18.4752 -2
    endloop
  endfacet
  facet normal 0 0 -1
    outer loop
      vertex -103.5 -18.4752 -2
      vertex -40.5 18.4752 -2
      vertex -40.5 -18.4752 -2
    endloop
  endfacet
  facet normal -0 0 -1
    outer loop
      vertex -40.5 18.4752 -2
      vertex -103.5 -18.4752 -2
      vertex -103.5 18.4752 -2
    endloop
  endfacet
  facet normal 0 0.447214 -0.894427
    outer loop
      vertex -40.5 -18.4752 -2
      vertex -31.5 -14.4752 0
      vertex -31.5 -18.4752 -2
    endloop
  endfacet
  facet normal 0 0.447214 -0.894427
    outer loop
      vertex -31.5 -14.4752 0
      vertex -40.5 -18.4752 -2
      vertex -40.5 -14.4752 0
    endloop
  endfacet
  facet normal 1 -0 0
    outer loop
      vertex -40.5 2.5 0
      vertex -40.5 18.4752 -2
      vertex -40.5 14.4752 0
    endloop
  endfacet
  facet normal 1 -0 0
    outer loop
      vertex -40.5 -2.5 0
      vertex -40.5 18.4752 -2
      vertex -40.5 2.5 0
    endloop
  endfacet
  facet normal 1 0 0
    outer loop
      vertex -40.5 -18.4752 -2
      vertex -40.5 -2.5 0
      vertex -40.5 -14.4752 0
    endloop
  endfacet
  facet normal 1 0 0
    outer loop
      vertex -40.5 -2.5 0
      vertex -40.5 -18.4752 -2
      vertex -40.5 18.4752 -2
    endloop
  endfacet
  facet normal -1 0 0
    outer loop
      vertex 40.5 18.4752 -2
      vertex 40.5 2.5 0
      vertex 40.5 14.4752 0
    endloop
  endfacet
  facet normal -1 0 0
    outer loop
      vertex 40.5 18.4752 -2
      vertex 40.5 -2.5 0
      vertex 40.5 2.5 0
    endloop
  endfacet
  facet normal -1 0 0
    outer loop
      vertex 40.5 -18.4752 -2
      vertex 40.5 -2.5 0
      vertex 40.5 18.4752 -2
    endloop
  endfacet
  facet normal -1 -0 0
    outer loop
      vertex 40.5 -2.5 0
      vertex 40.5 -18.4752 -2
      vertex 40.5 -14.4752 0
    endloop
  endfacet
  facet normal 0 -0.447214 -0.894427
    outer loop
      vertex 31.5 14.4752 0
      vertex 40.5 18.4752 -2
      vertex 40.5 14.4752 0
    endloop
  endfacet
  facet normal -0 -0.447214 -0.894427
    outer loop
      vertex 40.5 18.4752 -2
      vertex 31.5 14.4752 0
      vertex 31.5 18.4752 -2
    endloop
  endfacet
  facet normal 0 0.447214 -0.894427
    outer loop
      vertex 31.5 -18.4752 -2
      vertex 40.5 -14.4752 0
      vertex 40.5 -18.4752 -2
    endloop
  endfacet
  facet normal 0 0.447214 -0.894427
    outer loop
      vertex 40.5 -14.4752 0
      vertex 31.5 -18.4752 -2
      vertex 31.5 -14.4752 0
    endloop
  endfacet
  facet normal 1 -0 0
    outer loop
      vertex 31.5 2.5 0
      vertex 31.5 18.4752 -2
      vertex 31.5 14.4752 0
    endloop
  endfacet
  facet normal 1 -0 0
    outer loop
      vertex 31.5 -2.5 0
      vertex 31.5 18.4752 -2
      vertex 31.5 2.5 0
    endloop
  endfacet
  facet normal 1 0 0
    outer loop
      vertex 31.5 -18.4752 -2
      vertex 31.5 -2.5 0
      vertex 31.5 -14.4752 0
    endloop
  endfacet
  facet normal 1 0 0
    outer loop
      vertex 31.5 -2.5 0
      vertex 31.5 -18.4752 -2
      vertex 31.5 18.4752 -2
    endloop
  endfacet
  facet normal 0 -0.447214 -0.894427
    outer loop
      vertex -108 14.4752 0
      vertex -103.5 18.4752 -2
      vertex -103.5 14.4752 0
    endloop
  endfacet
  facet normal -0 -0.447214 -0.894427
    outer loop
      vertex -103.5 18.4752 -2
      vertex -108 14.4752 0
      vertex -108 18.4752 -2
    endloop
  endfacet
  facet normal 0.25 -0.433013 -0.866025
    outer loop
      vertex -112.5 15.8771 -2
      vertex -108 14.4752 0
      vertex -112.5 11.8771 0
    endloop
  endfacet
  facet normal 0.25 -0.433013 -0.866025
    outer loop
      vertex -108 14.4752 0
      vertex -112.5 15.8771 -2
      vertex -108 18.4752 -2
    endloop
  endfacet
  facet normal -1 0 0
    outer loop
      vertex -103.5 18.4752 -2
      vertex -103.5 2.5 0
      vertex -103.5 14.4752 0
    endloop
  endfacet
  facet normal -1 0 0
    outer loop
      vertex -103.5 18.4752 -2
      vertex -103.5 -2.5 0
      vertex -103.5 2.5 0
    endloop
  endfacet
  facet normal -1 0 0
    outer loop
      vertex -103.5 -18.4752 -2
      vertex -103.5 -2.5 0
      vertex -103.5 18.4752 -2
    endloop
  endfacet
  facet normal -1 -0 0
    outer loop
      vertex -103.5 -2.5 0
      vertex -103.5 -18.4752 -2
      vertex -103.5 -14.4752 0
    endloop
  endfacet
  facet normal 0 0.447214 -0.894427
    outer loop
      vertex -108 -18.4752 -2
      vertex -103.5 -14.4752 0
      vertex -103.5 -18.4752 -2
    endloop
  endfacet
  facet normal 0 0.447214 -0.894427
    outer loop
      vertex -103.5 -14.4752 0
      vertex -108 -18.4752 -2
      vertex -108 -14.4752 0
    endloop
  endfacet
  facet normal 1 -0 0
    outer loop
      vertex -112.5 2.5 0
      vertex -112.5 15.8771 -2
      vertex -112.5 11.8771 0
    endloop
  endfacet
  facet normal 1 -0 0
    outer loop
      vertex -112.5 -2.5 0
      vertex -112.5 15.8771 -2
      vertex -112.5 2.5 0
    endloop
  endfacet
  facet normal 1 0 0
    outer loop
      vertex -112.5 -15.8771 -2
      vertex -112.5 -2.5 0
      vertex -112.5 -11.8771 0
    endloop
  endfacet
  facet normal 1 0 0
    outer loop
      vertex -112.5 -2.5 0
      vertex -112.5 -15.8771 -2
      vertex -112.5 15.8771 -2
    endloop
  endfacet
  facet normal 0.25 0.433013 -0.866025
    outer loop
      vertex -112.5 -15.8771 -2
      vertex -108 -14.4752 0
      vertex -108 -18.4752 -2
    endloop
  endfacet
  facet normal 0.25 0.433013 -0.866025
    outer loop
      vertex -108 -14.4752 0
      vertex -112.5 -15.8771 -2
      vertex -112.5 -11.8771 0
    endloop
  endfacet
  facet normal -0.25 0.433013 -0.866025
    outer loop
      vertex 108 -14.4752 0
      vertex 112.5 -15.8771 -2
      vertex 108 -18.4752 -2
    endloop
  endfacet
  facet normal -0.25 0.433013 -0.866025
    outer loop
      vertex 112.5 -15.8771 -2
      vertex 108 -14.4752 0
      vertex 112.5 -11.8771 0
    endloop
  endfacet
  facet normal 0 0.447214 -0.894427
    outer loop
      vertex 103.5 -18.4752 -2
      vertex 108 -14.4752 0
      vertex 108 -18.4752 -2
    endloop
  endfacet
  facet normal 0 0.447214 -0.894427
    outer loop
      vertex 108 -14.4752 0
      vertex 103.5 -18.4752 -2
      vertex 103.5 -14.4752 0
    endloop
  endfacet
  facet normal 1 -0 0
    outer loop
      vertex 103.5 2.5 0
      vertex 103.5 18.4752 -2
      vertex 103.5 14.4752 0
    endloop
  endfacet
  facet normal 1 -0 0
    outer loop
      vertex 103.5 -2.5 0
      vertex 103.5 18.4752 -2
      vertex 103.5 2.5 0
    endloop
  endfacet
  facet normal 1 0 0
    outer loop
      vertex 103.5 -18.4752 -2
      vertex 103.5 -2.5 0
      vertex 103.5 -14.4752 0
    endloop
  endfacet
  facet normal 1 0 0
    outer loop
      vertex 103.5 -2.5 0
      vertex 103.5 -18.4752 -2
      vertex 103.5 18.4752 -2
    endloop
  endfacet
  facet normal 0 -0.447214 -0.894427
    outer loop
      vertex 103.5 14.4752 0
      vertex 108 18.4752 -2
      vertex 108 14.4752 0
    endloop
  endfacet
  facet normal -0 -0.447214 -0.894427
    outer loop
      vertex 108 18.4752 -2
      vertex 103.5 14.4752 0
      vertex 103.5 18.4752 -2
    endloop
  endfacet
  facet normal -1 0 0
    outer loop
      vertex 112.5 15.8771 -2
      vertex 112.5 2.5 0
      vertex 112.5 11.8771 0
    endloop
  endfacet
  facet normal -1 0 0
    outer loop
      vertex 112.5 15.8771 -2
      vertex 112.5 -2.5 0
      vertex 112.5 2.5 0
    endloop
  endfacet
  facet normal -1 0 0
    outer loop
      vertex 112.5 -15.8771 -2
      vertex 112.5 -2.5 0
      vertex 112.5 15.8771 -2
    endloop
  endfacet
  facet normal -1 -0 0
    outer loop
      vertex 112.5 -2.5 0
      vertex 112.5 -15.8771 -2
      vertex 112.5 -11.8771 0
    endloop
  endfacet
  facet normal -0.25 -0.433013 -0.866025
    outer loop
      vertex 108 14.4752 0
      vertex 112.5 15.8771 -2
      vertex 112.5 11.8771 0
    endloop
  endfacet
  facet normal -0.25 -0.433013 -0.866025
    outer loop
      vertex 112.5 15.8771 -2
      vertex 108 14.4752 0
      vertex 108 18.4752 -2
    endloop
  endfacet
  facet normal -0.377964 0.654654 0.654654
    outer loop
      vertex -140 0 0
      vertex -108 18.4752 0
      vertex -160.785 0 -12
    endloop
  endfacet
  facet normal 0 0.707107 0.707107
    outer loop
      vertex 108 30.4752 -12
      vertex 36 18.4752 0
      vertex 108 18.4752 0
    endloop
  endfacet
  facet normal 0 0.707107 0.707107
    outer loop
      vertex 36 18.4752 0
      vertex 108 30.4752 -12
      vertex -36 18.4752 0
    endloop
  endfacet
  facet normal -0 0.707107 0.707107
    outer loop
      vertex -108 30.4752 -12
      vertex -36 18.4752 0
      vertex 108 30.4752 -12
    endloop
  endfacet
  facet normal 0 0.707107 0.707107
    outer loop
      vertex -36 18.4752 0
      vertex -108 30.4752 -12
      vertex -108 18.4752 0
    endloop
  endfacet
  facet normal 0.377964 0.654654 0.654654
    outer loop
      vertex 140 0 0
      vertex 108 18.4752 0
      vertex 108 0 18.4752
    endloop
  endfacet
  facet normal 0.377964 0.654654 0.654654
    outer loop
      vertex 108 18.4752 0
      vertex 140 0 0
      vertex 108 30.4752 -12
    endloop
  endfacet
  facet normal 0.377964 -0.654654 0.654654
    outer loop
      vertex 160.785 0 -12
      vertex 140 0 0
      vertex 108 -18.4752 0
    endloop
  endfacet
  facet normal -0.377964 -0.654654 0.654654
    outer loop
      vertex -140 0 0
      vertex -108 -18.4752 0
      vertex -108 0 18.4752
    endloop
  endfacet
  facet normal -0.377964 -0.654654 0.654654
    outer loop
      vertex -108 -18.4752 0
      vertex -140 0 0
      vertex -108 -30.4752 -12
    endloop
  endfacet
  facet normal -0.377964 0.654654 0.654654
    outer loop
      vertex -108 18.4752 0
      vertex -108 30.4752 -12
      vertex -160.785 0 -12
    endloop
  endfacet
  facet normal 0.377965 0.654654 0.654654
    outer loop
      vertex 140 0 0
      vertex 160.785 0 -12
      vertex 108 30.4752 -12
    endloop
  endfacet
  facet normal 0.377964 -0.654654 0.654654
    outer loop
      vertex 160.785 0 -12
      vertex 108 -18.4752 0
      vertex 108 -30.4752 -12
    endloop
  endfacet
  facet normal 0 -0.707107 0.707107
    outer loop
      vertex -108 -30.4752 -12
      vertex -36 -18.4752 0
      vertex -108 -18.4752 0
    endloop
  endfacet
  facet normal 0 -0.707107 0.707107
    outer loop
      vertex -36 -18.4752 0
      vertex -108 -30.4752 -12
      vertex 36 -18.4752 0
    endloop
  endfacet
  facet normal 0 -0.707107 0.707107
    outer loop
      vertex 108 -30.4752 -12
      vertex 36 -18.4752 0
      vertex -108 -30.4752 -12
    endloop
  endfacet
  facet normal 0 -0.707107 0.707107
    outer loop
      vertex 36 -18.4752 0
      vertex 108 -30.4752 -12
      vertex 108 -18.4752 0
    endloop
  endfacet
  facet normal -0.377965 -0.654654 0.654654
    outer loop
      vertex -108 -30.4752 -12
      vertex -140 0 0
      vertex -160.785 0 -12
    endloop
  endfacet
  facet normal -0.5 0.866025 0
    outer loop
      vertex -108 30.4752 -32
      vertex -160.785 0 -12
      vertex -108 30.4752 -12
    endloop
  endfacet
  facet normal -0.5 0.866025 0
    outer loop
      vertex -160.785 0 -12
      vertex -108 30.4752 -32
      vertex -160.785 0 -32
    endloop
  endfacet
  facet normal 0 1 -0
    outer loop
      vertex 108 30.4752 -32
      vertex -108 30.4752 -12
      vertex 108 30.4752 -12
    endloop
  endfacet
  facet normal 0 1 0
    outer loop
      vertex -108 30.4752 -12
      vertex 108 30.4752 -32
      vertex -108 30.4752 -32
    endloop
  endfacet
  facet normal 0.5 0.866025 -0
    outer loop
      vertex 160.785 0 -32
      vertex 108 30.4752 -12
      vertex 160.785 0 -12
    endloop
  endfacet
  facet normal 0.5 0.866025 0
    outer loop
      vertex 108 30.4752 -12
      vertex 160.785 0 -32
      vertex 108 30.4752 -32
    endloop
  endfacet
  facet normal 0.5 -0.866025 0
    outer loop
      vertex 108 -30.4752 -32
      vertex 160.785 0 -12
      vertex 108 -30.4752 -12
    endloop
  endfacet
  facet normal 0.5 -0.866025 0
    outer loop
      vertex 160.785 0 -12
      vertex 108 -30.4752 -32
      vertex 160.785 0 -32
    endloop
  endfacet
  facet normal 0 -1 0
    outer loop
      vertex -108 -30.4752 -32
      vertex 108 -30.4752 -12
      vertex -108 -30.4752 -12
    endloop
  endfacet
  facet normal 0 -1 -0
    outer loop
      vertex 108 -30.4752 -12
      vertex -108 -30.4752 -32
      vertex 108 -30.4752 -32
    endloop
  endfacet
  facet normal -0.5 -0.866025 0
    outer loop
      vertex -160.785 0 -32
      vertex -108 -30.4752 -12
      vertex -160.785 0 -12
    endloop
  endfacet
  facet normal -0.5 -0.866025 -0
    outer loop
      vertex -108 -30.4752 -12
      vertex -160.785 0 -32
      vertex -108 -30.4752 -32
    endloop
  endfacet
  facet normal 0 0 -1
    outer loop
      vertex 108 -30.4752 -32
      vertex 157.321 0 -32
      vertex 160.785 0 -32
    endloop
  endfacet
  facet normal 0 0 -1
    outer loop
      vertex 108 -30.4752 -32
      vertex 108 -28.4752 -32
      vertex 157.321 0 -32
    endloop
  endfacet
  facet normal 0 0 -1
    outer loop
      vertex -108 -30.4752 -32
      vertex 108 -28.4752 -32
      vertex 108 -30.4752 -32
    endloop
  endfacet
  facet normal 0 0 -1
    outer loop
      vertex -108 -30.4752 -32
      vertex -108 -28.4752 -32
      vertex 108 -28.4752 -32
    endloop
  endfacet
  facet normal 0 0 -1
    outer loop
      vertex -108 -30.4752 -32
      vertex -157.321 0 -32
      vertex -108 -28.4752 -32
    endloop
  endfacet
  facet normal -0 -0 -1
    outer loop
      vertex -157.321 0 -32
      vertex -108 -30.4752 -32
      vertex -160.785 0 -32
    endloop
  endfacet
  facet normal 0 0 -1
    outer loop
      vertex 108 30.4752 -32
      vertex 157.321 0 -32
      vertex 108 28.4752 -32
    endloop
  endfacet
  facet normal 0 0 -1
    outer loop
      vertex 157.321 0 -32
      vertex 108 30.4752 -32
      vertex 160.785 0 -32
    endloop
  endfacet
  facet normal 0 0 -1
    outer loop
      vertex -108 28.4752 -32
      vertex 108 30.4752 -32
      vertex 108 28.4752 -32
    endloop
  endfacet
  facet normal 0 0 -1
    outer loop
      vertex -108 28.4752 -32
      vertex -108 30.4752 -32
      vertex 108 30.4752 -32
    endloop
  endfacet
  facet normal 0 0 -1
    outer loop
      vertex -157.321 0 -32
      vertex -108 30.4752 -32
      vertex -108 28.4752 -32
    endloop
  endfacet
  facet normal 0 0 -1
    outer loop
      vertex -108 30.4752 -32
      vertex -157.321 0 -32
      vertex -160.785 0 -32
    endloop
  endfacet
  facet normal 0.5 -0.866025 2.69167e-007
    outer loop
      vertex -125.526 18.3564 -18.1072
      vertex -157.321 0 -12
      vertex -142.847 8.35641 -18.1072
    endloop
  endfacet
  facet normal 0.5 -0.866025 0
    outer loop
      vertex -157.321 0 -12
      vertex -142.847 8.35641 -19.9725
      vertex -142.847 8.35641 -18.1072
    endloop
  endfacet
  facet normal 0.5 -0.866025 -1.36674e-007
    outer loop
      vertex -142.847 8.35641 -19.9725
      vertex -157.321 0 -32
      vertex -125.526 18.3564 -19.9725
    endloop
  endfacet
  facet normal 0.5 -0.866025 0
    outer loop
      vertex -157.321 0 -32
      vertex -142.847 8.35641 -19.9725
      vertex -157.321 0 -12
    endloop
  endfacet
  facet normal 0.5 -0.866025 2.62518e-007
    outer loop
      vertex -157.321 0 -12
      vertex -125.526 18.3564 -18.1072
      vertex -108 28.4752 -12
    endloop
  endfacet
  facet normal 0.5 -0.866025 0
    outer loop
      vertex -125.526 18.3564 -19.9725
      vertex -108 28.4752 -12
      vertex -125.526 18.3564 -18.1072
    endloop
  endfacet
  facet normal 0.5 -0.866025 0
    outer loop
      vertex -125.526 18.3564 -19.9725
      vertex -108 28.4752 -32
      vertex -108 28.4752 -12
    endloop
  endfacet
  facet normal 0.5 -0.866025 -1.33298e-007
    outer loop
      vertex -108 28.4752 -32
      vertex -125.526 18.3564 -19.9725
      vertex -157.321 0 -32
    endloop
  endfacet
  facet normal 0 -1 0
    outer loop
      vertex 10 28.4752 -20.1539
      vertex 62 28.4752 -18
      vertex 10 28.4752 -18
    endloop
  endfacet
  facet normal 0 -1 -0
    outer loop
      vertex 62 28.4752 -18
      vertex 10 28.4752 -20.1539
      vertex 62 28.4752 -20.1539
    endloop
  endfacet
  facet normal 0 -1 0
    outer loop
      vertex -62 28.4752 -20.1539
      vertex -10 28.4752 -18
      vertex -62 28.4752 -18
    endloop
  endfacet
  facet normal 0 -1 -0
    outer loop
      vertex -10 28.4752 -18
      vertex -62 28.4752 -20.1539
      vertex -10 28.4752 -20.1539
    endloop
  endfacet
  facet normal 0 -1 0
    outer loop
      vertex -62 28.4752 -18
      vertex -108 28.4752 -12
      vertex -82 28.4752 -18
    endloop
  endfacet
  facet normal 0 -1 0
    outer loop
      vertex -108 28.4752 -12
      vertex -82 28.4752 -20.1539
      vertex -82 28.4752 -18
    endloop
  endfacet
  facet normal 0 -1 0
    outer loop
      vertex -108 28.4752 -32
      vertex -62 28.4752 -20.1539
      vertex -82 28.4752 -20.1539
    endloop
  endfacet
  facet normal 0 -1 -0
    outer loop
      vertex -62 28.4752 -20.1539
      vertex -108 28.4752 -32
      vertex -10 28.4752 -20.1539
    endloop
  endfacet
  facet normal 0 -1 -0
    outer loop
      vertex -10 28.4752 -20.1539
      vertex -108 28.4752 -32
      vertex 10 28.4752 -20.1539
    endloop
  endfacet
  facet normal 0 -1 0
    outer loop
      vertex 108 28.4752 -32
      vertex 10 28.4752 -20.1539
      vertex -108 28.4752 -32
    endloop
  endfacet
  facet normal 0 -1 0
    outer loop
      vertex 10 28.4752 -20.1539
      vertex 108 28.4752 -32
      vertex 62 28.4752 -20.1539
    endloop
  endfacet
  facet normal 0 -1 0
    outer loop
      vertex -108 28.4752 -32
      vertex -82 28.4752 -20.1539
      vertex -108 28.4752 -12
    endloop
  endfacet
  facet normal 0 -1 0
    outer loop
      vertex -10 28.4752 -18
      vertex -108 28.4752 -12
      vertex -62 28.4752 -18
    endloop
  endfacet
  facet normal 0 -1 0
    outer loop
      vertex -108 28.4752 -12
      vertex -10 28.4752 -18
      vertex 108 28.4752 -12
    endloop
  endfacet
  facet normal 0 -1 0
    outer loop
      vertex 10 28.4752 -18
      vertex 108 28.4752 -12
      vertex -10 28.4752 -18
    endloop
  endfacet
  facet normal 0 -1 0
    outer loop
      vertex 62 28.4752 -18
      vertex 108 28.4752 -12
      vertex 10 28.4752 -18
    endloop
  endfacet
  facet normal 0 -1 0
    outer loop
      vertex 82 28.4752 -18
      vertex 108 28.4752 -12
      vertex 62 28.4752 -18
    endloop
  endfacet
  facet normal 0 -1 0
    outer loop
      vertex 82 28.4752 -20.1539
      vertex 108 28.4752 -12
      vertex 82 28.4752 -18
    endloop
  endfacet
  facet normal 0 -1 0
    outer loop
      vertex 82 28.4752 -20.1539
      vertex 108 28.4752 -32
      vertex 108 28.4752 -12
    endloop
  endfacet
  facet normal 0 -1 0
    outer loop
      vertex 62 28.4752 -20.1539
      vertex 108 28.4752 -32
      vertex 82 28.4752 -20.1539
    endloop
  endfacet
  facet normal -0.5 -0.866025 2.62518e-007
    outer loop
      vertex 108 28.4752 -12
      vertex 125.526 18.3564 -18.1072
      vertex 157.321 0 -12
    endloop
  endfacet
  facet normal -0.5 -0.866025 0
    outer loop
      vertex 108 28.4752 -12
      vertex 125.526 18.3564 -19.9725
      vertex 125.526 18.3564 -18.1072
    endloop
  endfacet
  facet normal -0.5 -0.866025 -1.33298e-007
    outer loop
      vertex 157.321 0 -32
      vertex 125.526 18.3564 -19.9725
      vertex 108 28.4752 -32
    endloop
  endfacet
  facet normal -0.5 -0.866025 0
    outer loop
      vertex 108 28.4752 -32
      vertex 125.526 18.3564 -19.9725
      vertex 108 28.4752 -12
    endloop
  endfacet
  facet normal -0.5 -0.866025 2.69167e-007
    outer loop
      vertex 142.847 8.35641 -18.1072
      vertex 157.321 0 -12
      vertex 125.526 18.3564 -18.1072
    endloop
  endfacet
  facet normal -0.5 -0.866025 0
    outer loop
      vertex 142.847 8.35641 -19.9725
      vertex 157.321 0 -12
      vertex 142.847 8.35641 -18.1072
    endloop
  endfacet
  facet normal -0.5 -0.866025 0
    outer loop
      vertex 142.847 8.35641 -19.9725
      vertex 157.321 0 -32
      vertex 157.321 0 -12
    endloop
  endfacet
  facet normal -0.5 -0.866025 -1.36674e-007
    outer loop
      vertex 125.526 18.3564 -19.9725
      vertex 157.321 0 -32
      vertex 142.847 8.35641 -19.9725
    endloop
  endfacet
  facet normal -0.5 0.866025 2.69167e-007
    outer loop
      vertex 125.526 -18.3564 -18.1072
      vertex 157.321 0 -12
      vertex 142.847 -8.35641 -18.1072
    endloop
  endfacet
  facet normal -0.5 0.866025 0
    outer loop
      vertex 157.321 0 -12
      vertex 142.847 -8.35641 -19.9725
      vertex 142.847 -8.35641 -18.1072
    endloop
  endfacet
  facet normal -0.5 0.866025 -1.36674e-007
    outer loop
      vertex 142.847 -8.35641 -19.9725
      vertex 157.321 0 -32
      vertex 125.526 -18.3564 -19.9725
    endloop
  endfacet
  facet normal -0.5 0.866025 0
    outer loop
      vertex 157.321 0 -32
      vertex 142.847 -8.35641 -19.9725
      vertex 157.321 0 -12
    endloop
  endfacet
  facet normal -0.5 0.866025 2.62518e-007
    outer loop
      vertex 157.321 0 -12
      vertex 125.526 -18.3564 -18.1072
      vertex 108 -28.4752 -12
    endloop
  endfacet
  facet normal -0.5 0.866025 0
    outer loop
      vertex 125.526 -18.3564 -19.9725
      vertex 108 -28.4752 -12
      vertex 125.526 -18.3564 -18.1072
    endloop
  endfacet
  facet normal -0.5 0.866025 0
    outer loop
      vertex 125.526 -18.3564 -19.9725
      vertex 108 -28.4752 -32
      vertex 108 -28.4752 -12
    endloop
  endfacet
  facet normal -0.5 0.866025 -1.33298e-007
    outer loop
      vertex 108 -28.4752 -32
      vertex 125.526 -18.3564 -19.9725
      vertex 157.321 0 -32
    endloop
  endfacet
  facet normal 0 1 -0
    outer loop
      vertex -10 -28.4752 -20.1539
      vertex -62 -28.4752 -18
      vertex -10 -28.4752 -18
    endloop
  endfacet
  facet normal 0 1 0
    outer loop
      vertex -62 -28.4752 -18
      vertex -10 -28.4752 -20.1539
      vertex -62 -28.4752 -20.1539
    endloop
  endfacet
  facet normal 0 1 -0
    outer loop
      vertex 62 -28.4752 -20.1539
      vertex 10 -28.4752 -18
      vertex 62 -28.4752 -18
    endloop
  endfacet
  facet normal 0 1 0
    outer loop
      vertex 10 -28.4752 -18
      vertex 62 -28.4752 -20.1539
      vertex 10 -28.4752 -20.1539
    endloop
  endfacet
  facet normal 0 1 0
    outer loop
      vertex 62 -28.4752 -18
      vertex 108 -28.4752 -12
      vertex 82 -28.4752 -18
    endloop
  endfacet
  facet normal 0 1 0
    outer loop
      vertex 108 -28.4752 -12
      vertex 82 -28.4752 -20.1539
      vertex 82 -28.4752 -18
    endloop
  endfacet
  facet normal 0 1 0
    outer loop
      vertex 108 -28.4752 -32
      vertex 62 -28.4752 -20.1539
      vertex 82 -28.4752 -20.1539
    endloop
  endfacet
  facet normal 0 1 0
    outer loop
      vertex 62 -28.4752 -20.1539
      vertex 108 -28.4752 -32
      vertex 10 -28.4752 -20.1539
    endloop
  endfacet
  facet normal 0 1 0
    outer loop
      vertex 10 -28.4752 -20.1539
      vertex 108 -28.4752 -32
      vertex -10 -28.4752 -20.1539
    endloop
  endfacet
  facet normal 0 1 0
    outer loop
      vertex -108 -28.4752 -32
      vertex -10 -28.4752 -20.1539
      vertex 108 -28.4752 -32
    endloop
  endfacet
  facet normal 0 1 0
    outer loop
      vertex -10 -28.4752 -20.1539
      vertex -108 -28.4752 -32
      vertex -62 -28.4752 -20.1539
    endloop
  endfacet
  facet normal 0 1 -0
    outer loop
      vertex 108 -28.4752 -32
      vertex 82 -28.4752 -20.1539
      vertex 108 -28.4752 -12
    endloop
  endfacet
  facet normal 0 1 0
    outer loop
      vertex 10 -28.4752 -18
      vertex 108 -28.4752 -12
      vertex 62 -28.4752 -18
    endloop
  endfacet
  facet normal 0 1 0
    outer loop
      vertex 108 -28.4752 -12
      vertex 10 -28.4752 -18
      vertex -108 -28.4752 -12
    endloop
  endfacet
  facet normal 0 1 -0
    outer loop
      vertex -10 -28.4752 -18
      vertex -108 -28.4752 -12
      vertex 10 -28.4752 -18
    endloop
  endfacet
  facet normal 0 1 -0
    outer loop
      vertex -62 -28.4752 -18
      vertex -108 -28.4752 -12
      vertex -10 -28.4752 -18
    endloop
  endfacet
  facet normal 0 1 -0
    outer loop
      vertex -82 -28.4752 -18
      vertex -108 -28.4752 -12
      vertex -62 -28.4752 -18
    endloop
  endfacet
  facet normal 0 1 -0
    outer loop
      vertex -82 -28.4752 -20.1539
      vertex -108 -28.4752 -12
      vertex -82 -28.4752 -18
    endloop
  endfacet
  facet normal 0 1 0
    outer loop
      vertex -82 -28.4752 -20.1539
      vertex -108 -28.4752 -32
      vertex -108 -28.4752 -12
    endloop
  endfacet
  facet normal 0 1 0
    outer loop
      vertex -62 -28.4752 -20.1539
      vertex -108 -28.4752 -32
      vertex -82 -28.4752 -20.1539
    endloop
  endfacet
  facet normal 0.5 0.866025 2.62518e-007
    outer loop
      vertex -108 -28.4752 -12
      vertex -125.526 -18.3564 -18.1072
      vertex -157.321 0 -12
    endloop
  endfacet
  facet normal 0.5 0.866025 0
    outer loop
      vertex -108 -28.4752 -12
      vertex -125.526 -18.3564 -19.9725
      vertex -125.526 -18.3564 -18.1072
    endloop
  endfacet
  facet normal 0.5 0.866025 -1.33298e-007
    outer loop
      vertex -157.321 0 -32
      vertex -125.526 -18.3564 -19.9725
      vertex -108 -28.4752 -32
    endloop
  endfacet
  facet normal 0.5 0.866025 -0
    outer loop
      vertex -108 -28.4752 -32
      vertex -125.526 -18.3564 -19.9725
      vertex -108 -28.4752 -12
    endloop
  endfacet
  facet normal 0.5 0.866025 2.69167e-007
    outer loop
      vertex -142.847 -8.35641 -18.1072
      vertex -157.321 0 -12
      vertex -125.526 -18.3564 -18.1072
    endloop
  endfacet
  facet normal 0.5 0.866025 -0
    outer loop
      vertex -142.847 -8.35641 -19.9725
      vertex -157.321 0 -12
      vertex -142.847 -8.35641 -18.1072
    endloop
  endfacet
  facet normal 0.5 0.866025 0
    outer loop
      vertex -142.847 -8.35641 -19.9725
      vertex -157.321 0 -32
      vertex -157.321 0 -12
    endloop
  endfacet
  facet normal 0.5 0.866025 -1.36674e-007
    outer loop
      vertex -125.526 -18.3564 -19.9725
      vertex -157.321 0 -32
      vertex -142.847 -8.35641 -19.9725
    endloop
  endfacet
  facet normal 0.377964 -0.654654 -0.654654
    outer loop
      vertex -108 28.4752 -12
      vertex -140 0 -2
      vertex -157.321 0 -12
    endloop
  endfacet
  facet normal 0 -0.707107 -0.707107
    outer loop
      vertex -108 28.4752 -12
      vertex -103.5 18.4752 -2
      vertex -108 18.4752 -2
    endloop
  endfacet
  facet normal 0 -0.707107 -0.707107
    outer loop
      vertex -103.5 18.4752 -2
      vertex -108 28.4752 -12
      vertex -40.5 18.4752 -2
    endloop
  endfacet
  facet normal 0 -0.707107 -0.707107
    outer loop
      vertex -40.5 18.4752 -2
      vertex -108 28.4752 -12
      vertex -31.5 18.4752 -2
    endloop
  endfacet
  facet normal 0 -0.707107 -0.707107
    outer loop
      vertex -31.5 18.4752 -2
      vertex -108 28.4752 -12
      vertex 31.5 18.4752 -2
    endloop
  endfacet
  facet normal -0 -0.707107 -0.707107
    outer loop
      vertex 108 28.4752 -12
      vertex 31.5 18.4752 -2
      vertex -108 28.4752 -12
    endloop
  endfacet
  facet normal 0 -0.707107 -0.707107
    outer loop
      vertex 31.5 18.4752 -2
      vertex 108 28.4752 -12
      vertex 40.5 18.4752 -2
    endloop
  endfacet
  facet normal 0 -0.707107 -0.707107
    outer loop
      vertex 40.5 18.4752 -2
      vertex 108 28.4752 -12
      vertex 103.5 18.4752 -2
    endloop
  endfacet
  facet normal 0 -0.707107 -0.707107
    outer loop
      vertex 103.5 18.4752 -2
      vertex 108 28.4752 -12
      vertex 108 18.4752 -2
    endloop
  endfacet
  facet normal -0.377964 -0.654654 -0.654654
    outer loop
      vertex 108 28.4752 -12
      vertex 157.321 0 -12
      vertex 108 18.4752 -2
    endloop
  endfacet
  facet normal -0.377964 0.654654 -0.654654
    outer loop
      vertex 140 0 -2
      vertex 157.321 0 -12
      vertex 108 -28.4752 -12
    endloop
  endfacet
  facet normal 0.377964 0.654654 -0.654654
    outer loop
      vertex -108 -18.4752 -2
      vertex -108 -28.4752 -12
      vertex -157.321 0 -12
    endloop
  endfacet
  facet normal 0.377964 -0.654654 -0.654654
    outer loop
      vertex -108 28.4752 -12
      vertex -108 18.4752 -2
      vertex -140 0 -2
    endloop
  endfacet
  facet normal -0.377964 -0.654654 -0.654654
    outer loop
      vertex 157.321 0 -12
      vertex 140 0 -2
      vertex 108 18.4752 -2
    endloop
  endfacet
  facet normal -0.377964 0.654654 -0.654654
    outer loop
      vertex 108 -18.4752 -2
      vertex 140 0 -2
      vertex 108 -28.4752 -12
    endloop
  endfacet
  facet normal 0 0.707107 -0.707107
    outer loop
      vertex 108 -28.4752 -12
      vertex 103.5 -18.4752 -2
      vertex 108 -18.4752 -2
    endloop
  endfacet
  facet normal 0 0.707107 -0.707107
    outer loop
      vertex 103.5 -18.4752 -2
      vertex 108 -28.4752 -12
      vertex 40.5 -18.4752 -2
    endloop
  endfacet
  facet normal 0 0.707107 -0.707107
    outer loop
      vertex 40.5 -18.4752 -2
      vertex 108 -28.4752 -12
      vertex 31.5 -18.4752 -2
    endloop
  endfacet
  facet normal 0 0.707107 -0.707107
    outer loop
      vertex 31.5 -18.4752 -2
      vertex 108 -28.4752 -12
      vertex -31.5 -18.4752 -2
    endloop
  endfacet
  facet normal 0 0.707107 -0.707107
    outer loop
      vertex -108 -28.4752 -12
      vertex -31.5 -18.4752 -2
      vertex 108 -28.4752 -12
    endloop
  endfacet
  facet normal 0 0.707107 -0.707107
    outer loop
      vertex -31.5 -18.4752 -2
      vertex -108 -28.4752 -12
      vertex -40.5 -18.4752 -2
    endloop
  endfacet
  facet normal 0 0.707107 -0.707107
    outer loop
      vertex -40.5 -18.4752 -2
      vertex -108 -28.4752 -12
      vertex -103.5 -18.4752 -2
    endloop
  endfacet
  facet normal 0 0.707107 -0.707107
    outer loop
      vertex -103.5 -18.4752 -2
      vertex -108 -28.4752 -12
      vertex -108 -18.4752 -2
    endloop
  endfacet
  facet normal 0.377964 0.654654 -0.654654
    outer loop
      vertex -140 0 -2
      vertex -108 -18.4752 -2
      vertex -157.321 0 -12
    endloop
  endfacet
  facet normal -0.377965 0.654654 -0.654654
    outer loop
      vertex -108 0 17.1752
      vertex -79.9837 0 1
      vertex -108 -16.1752 1
    endloop
  endfacet
  facet normal 0.377965 0.654654 -0.654654
    outer loop
      vertex -108 0 17.1752
      vertex -108 -16.1752 1
      vertex -136.016 0 1
    endloop
  endfacet
  facet normal 0.377965 -0.654654 -0.654654
    outer loop
      vertex -108 16.1752 1
      vertex -108 0 17.1752
      vertex -136.016 0 1
    endloop
  endfacet
  facet normal -0.377965 -0.654654 -0.654654
    outer loop
      vertex -108 16.1752 1
      vertex -79.9837 0 1
      vertex -108 0 17.1752
    endloop
  endfacet
  facet normal 0.377964 -0.654654 0.654654
    outer loop
      vertex -76 0 0
      vertex -108 0 18.4752
      vertex -108 -18.4752 0
    endloop
  endfacet
  facet normal -0.377964 0.654654 0.654654
    outer loop
      vertex -108 0 18.4752
      vertex -108 18.4752 0
      vertex -140 0 0
    endloop
  endfacet
  facet normal 0.377964 0.654654 0.654654
    outer loop
      vertex -76 0 0
      vertex -108 18.4752 0
      vertex -108 0 18.4752
    endloop
  endfacet
  facet normal 0 0 1
    outer loop
      vertex -108 16.1752 1
      vertex -103.5 2.5 1
      vertex -79.9837 0 1
    endloop
  endfacet
  facet normal 0 0 1
    outer loop
      vertex -108 16.1752 1
      vertex -112.5 2.5 1
      vertex -103.5 2.5 1
    endloop
  endfacet
  facet normal 0 0 1
    outer loop
      vertex -112.5 2.5 1
      vertex -136.016 0 1
      vertex -112.5 -2.5 1
    endloop
  endfacet
  facet normal 0 0 1
    outer loop
      vertex -136.016 0 1
      vertex -112.5 2.5 1
      vertex -108 16.1752 1
    endloop
  endfacet
  facet normal 0 0 1
    outer loop
      vertex -103.5 -2.5 1
      vertex -79.9837 0 1
      vertex -103.5 2.5 1
    endloop
  endfacet
  facet normal -0 0 1
    outer loop
      vertex -103.5 -2.5 1
      vertex -108 -16.1752 1
      vertex -79.9837 0 1
    endloop
  endfacet
  facet normal -0 0 1
    outer loop
      vertex -112.5 -2.5 1
      vertex -108 -16.1752 1
      vertex -103.5 -2.5 1
    endloop
  endfacet
  facet normal 0 0 1
    outer loop
      vertex -108 -16.1752 1
      vertex -112.5 -2.5 1
      vertex -136.016 0 1
    endloop
  endfacet
  facet normal 0 1 -0
    outer loop
      vertex -103.5 -2.5 0
      vertex -112.5 -2.5 1
      vertex -103.5 -2.5 1
    endloop
  endfacet
  facet normal 0 1 0
    outer loop
      vertex -112.5 -2.5 1
      vertex -103.5 -2.5 0
      vertex -112.5 -2.5 0
    endloop
  endfacet
  facet normal 1 -0 0
    outer loop
      vertex -112.5 -2.5 1
      vertex -112.5 2.5 0
      vertex -112.5 2.5 1
    endloop
  endfacet
  facet normal 1 0 0
    outer loop
      vertex -112.5 2.5 0
      vertex -112.5 -2.5 1
      vertex -112.5 -2.5 0
    endloop
  endfacet
  facet normal 0 -1 0
    outer loop
      vertex -112.5 2.5 0
      vertex -103.5 2.5 1
      vertex -112.5 2.5 1
    endloop
  endfacet
  facet normal 0 -1 -0
    outer loop
      vertex -103.5 2.5 1
      vertex -112.5 2.5 0
      vertex -103.5 2.5 0
    endloop
  endfacet
  facet normal -1 0 0
    outer loop
      vertex -103.5 -2.5 0
      vertex -103.5 2.5 1
      vertex -103.5 2.5 0
    endloop
  endfacet
  facet normal -1 -0 0
    outer loop
      vertex -103.5 2.5 1
      vertex -103.5 -2.5 0
      vertex -103.5 -2.5 1
    endloop
  endfacet
  facet normal -0.377964 0.654654 -0.654654
    outer loop
      vertex -36 0 17.1752
      vertex -7.98372 0 1
      vertex -36 -16.1752 1
    endloop
  endfacet
  facet normal 0.377965 0.654654 -0.654654
    outer loop
      vertex -36 0 17.1752
      vertex -36 -16.1752 1
      vertex -64.0163 0 1
    endloop
  endfacet
  facet normal 0.377965 -0.654654 -0.654654
    outer loop
      vertex -36 16.1752 1
      vertex -36 0 17.1752
      vertex -64.0163 0 1
    endloop
  endfacet
  facet normal -0.377964 -0.654654 -0.654654
    outer loop
      vertex -36 16.1752 1
      vertex -7.98372 0 1
      vertex -36 0 17.1752
    endloop
  endfacet
  facet normal 0.377964 -0.654654 0.654654
    outer loop
      vertex -4 0 0
      vertex -36 0 18.4752
      vertex -36 -18.4752 0
    endloop
  endfacet
  facet normal -0.377964 -0.654654 0.654654
    outer loop
      vertex -36 -18.4752 0
      vertex -36 0 18.4752
      vertex -68 0 0
    endloop
  endfacet
  facet normal -0.377964 0.654654 0.654654
    outer loop
      vertex -36 0 18.4752
      vertex -36 18.4752 0
      vertex -68 0 0
    endloop
  endfacet
  facet normal 0.377964 0.654654 0.654654
    outer loop
      vertex -4 0 0
      vertex -36 18.4752 0
      vertex -36 0 18.4752
    endloop
  endfacet
  facet normal 0 0 1
    outer loop
      vertex -36 16.1752 1
      vertex -31.5 2.5 1
      vertex -7.98372 0 1
    endloop
  endfacet
  facet normal 0 0 1
    outer loop
      vertex -36 16.1752 1
      vertex -40.5 2.5 1
      vertex -31.5 2.5 1
    endloop
  endfacet
  facet normal 0 0 1
    outer loop
      vertex -40.5 2.5 1
      vertex -64.0163 0 1
      vertex -40.5 -2.5 1
    endloop
  endfacet
  facet normal 0 0 1
    outer loop
      vertex -64.0163 0 1
      vertex -40.5 2.5 1
      vertex -36 16.1752 1
    endloop
  endfacet
  facet normal 0 0 1
    outer loop
      vertex -31.5 -2.5 1
      vertex -7.98372 0 1
      vertex -31.5 2.5 1
    endloop
  endfacet
  facet normal -0 0 1
    outer loop
      vertex -31.5 -2.5 1
      vertex -36 -16.1752 1
      vertex -7.98372 0 1
    endloop
  endfacet
  facet normal -0 0 1
    outer loop
      vertex -40.5 -2.5 1
      vertex -36 -16.1752 1
      vertex -31.5 -2.5 1
    endloop
  endfacet
  facet normal 0 0 1
    outer loop
      vertex -36 -16.1752 1
      vertex -40.5 -2.5 1
      vertex -64.0163 0 1
    endloop
  endfacet
  facet normal 0 1 -0
    outer loop
      vertex -31.5 -2.5 0
      vertex -40.5 -2.5 1
      vertex -31.5 -2.5 1
    endloop
  endfacet
  facet normal 0 1 0
    outer loop
      vertex -40.5 -2.5 1
      vertex -31.5 -2.5 0
      vertex -40.5 -2.5 0
    endloop
  endfacet
  facet normal 1 -0 0
    outer loop
      vertex -40.5 -2.5 1
      vertex -40.5 2.5 0
      vertex -40.5 2.5 1
    endloop
  endfacet
  facet normal 1 0 0
    outer loop
      vertex -40.5 2.5 0
      vertex -40.5 -2.5 1
      vertex -40.5 -2.5 0
    endloop
  endfacet
  facet normal 0 -1 0
    outer loop
      vertex -40.5 2.5 0
      vertex -31.5 2.5 1
      vertex -40.5 2.5 1
    endloop
  endfacet
  facet normal 0 -1 -0
    outer loop
      vertex -31.5 2.5 1
      vertex -40.5 2.5 0
      vertex -31.5 2.5 0
    endloop
  endfacet
  facet normal -1 0 0
    outer loop
      vertex -31.5 -2.5 0
      vertex -31.5 2.5 1
      vertex -31.5 2.5 0
    endloop
  endfacet
  facet normal -1 -0 0
    outer loop
      vertex -31.5 2.5 1
      vertex -31.5 -2.5 0
      vertex -31.5 -2.5 1
    endloop
  endfacet
  facet normal -0.377965 0.654654 -0.654654
    outer loop
      vertex 36 0 17.1752
      vertex 64.0163 0 1
      vertex 36 -16.1752 1
    endloop
  endfacet
  facet normal 0.377964 0.654654 -0.654654
    outer loop
      vertex 36 0 17.1752
      vertex 36 -16.1752 1
      vertex 7.98372 0 1
    endloop
  endfacet
  facet normal 0.377964 -0.654654 -0.654654
    outer loop
      vertex 36 16.1752 1
      vertex 36 0 17.1752
      vertex 7.98372 0 1
    endloop
  endfacet
  facet normal -0.377965 -0.654654 -0.654654
    outer loop
      vertex 36 16.1752 1
      vertex 64.0163 0 1
      vertex 36 0 17.1752
    endloop
  endfacet
  facet normal 0.377964 -0.654654 0.654654
    outer loop
      vertex 68 0 0
      vertex 36 0 18.4752
      vertex 36 -18.4752 0
    endloop
  endfacet
  facet normal -0.377964 -0.654654 0.654654
    outer loop
      vertex 36 -18.4752 0
      vertex 36 0 18.4752
      vertex 4 0 0
    endloop
  endfacet
  facet normal -0.377964 0.654654 0.654654
    outer loop
      vertex 36 0 18.4752
      vertex 36 18.4752 0
      vertex 4 0 0
    endloop
  endfacet
  facet normal 0.377964 0.654654 0.654654
    outer loop
      vertex 68 0 0
      vertex 36 18.4752 0
      vertex 36 0 18.4752
    endloop
  endfacet
  facet normal 0 0 1
    outer loop
      vertex 36 16.1752 1
      vertex 40.5 2.5 1
      vertex 64.0163 0 1
    endloop
  endfacet
  facet normal 0 0 1
    outer loop
      vertex 36 16.1752 1
      vertex 31.5 2.5 1
      vertex 40.5 2.5 1
    endloop
  endfacet
  facet normal 0 0 1
    outer loop
      vertex 31.5 2.5 1
      vertex 7.98372 0 1
      vertex 31.5 -2.5 1
    endloop
  endfacet
  facet normal 0 0 1
    outer loop
      vertex 7.98372 0 1
      vertex 31.5 2.5 1
      vertex 36 16.1752 1
    endloop
  endfacet
  facet normal 0 0 1
    outer loop
      vertex 40.5 -2.5 1
      vertex 64.0163 0 1
      vertex 40.5 2.5 1
    endloop
  endfacet
  facet normal -0 0 1
    outer loop
      vertex 40.5 -2.5 1
      vertex 36 -16.1752 1
      vertex 64.0163 0 1
    endloop
  endfacet
  facet normal -0 0 1
    outer loop
      vertex 31.5 -2.5 1
      vertex 36 -16.1752 1
      vertex 40.5 -2.5 1
    endloop
  endfacet
  facet normal 0 0 1
    outer loop
      vertex 36 -16.1752 1
      vertex 31.5 -2.5 1
      vertex 7.98372 0 1
    endloop
  endfacet
  facet normal 0 1 -0
    outer loop
      vertex 40.5 -2.5 0
      vertex 31.5 -2.5 1
      vertex 40.5 -2.5 1
    endloop
  endfacet
  facet normal 0 1 0
    outer loop
      vertex 31.5 -2.5 1
      vertex 40.5 -2.5 0
      vertex 31.5 -2.5 0
    endloop
  endfacet
  facet normal 1 -0 0
    outer loop
      vertex 31.5 -2.5 1
      vertex 31.5 2.5 0
      vertex 31.5 2.5 1
    endloop
  endfacet
  facet normal 1 0 0
    outer loop
      vertex 31.5 2.5 0
      vertex 31.5 -2.5 1
      vertex 31.5 -2.5 0
    endloop
  endfacet
  facet normal 0 -1 0
    outer loop
      vertex 31.5 2.5 0
      vertex 40.5 2.5 1
      vertex 31.5 2.5 1
    endloop
  endfacet
  facet normal 0 -1 -0
    outer loop
      vertex 40.5 2.5 1
      vertex 31.5 2.5 0
      vertex 40.5 2.5 0
    endloop
  endfacet
  facet normal -1 0 0
    outer loop
      vertex 40.5 -2.5 0
      vertex 40.5 2.5 1
      vertex 40.5 2.5 0
    endloop
  endfacet
  facet normal -1 -0 0
    outer loop
      vertex 40.5 2.5 1
      vertex 40.5 -2.5 0
      vertex 40.5 -2.5 1
    endloop
  endfacet
  facet normal -0.377965 0.654654 -0.654654
    outer loop
      vertex 108 0 17.1752
      vertex 136.016 0 1
      vertex 108 -16.1752 1
    endloop
  endfacet
  facet normal 0.377965 0.654654 -0.654654
    outer loop
      vertex 108 0 17.1752
      vertex 108 -16.1752 1
      vertex 79.9837 0 1
    endloop
  endfacet
  facet normal 0.377965 -0.654654 -0.654654
    outer loop
      vertex 108 16.1752 1
      vertex 108 0 17.1752
      vertex 79.9837 0 1
    endloop
  endfacet
  facet normal -0.377965 -0.654654 -0.654654
    outer loop
      vertex 108 16.1752 1
      vertex 136.016 0 1
      vertex 108 0 17.1752
    endloop
  endfacet
  facet normal 0.377964 -0.654654 0.654654
    outer loop
      vertex 140 0 0
      vertex 108 0 18.4752
      vertex 108 -18.4752 0
    endloop
  endfacet
  facet normal -0.377964 -0.654654 0.654654
    outer loop
      vertex 108 -18.4752 0
      vertex 108 0 18.4752
      vertex 76 0 0
    endloop
  endfacet
  facet normal -0.377964 0.654654 0.654654
    outer loop
      vertex 108 0 18.4752
      vertex 108 18.4752 0
      vertex 76 0 0
    endloop
  endfacet
  facet normal 0 0 1
    outer loop
      vertex 108 16.1752 1
      vertex 112.5 2.5 1
      vertex 136.016 0 1
    endloop
  endfacet
  facet normal 0 0 1
    outer loop
      vertex 108 16.1752 1
      vertex 103.5 2.5 1
      vertex 112.5 2.5 1
    endloop
  endfacet
  facet normal 0 0 1
    outer loop
      vertex 103.5 2.5 1
      vertex 79.9837 0 1
      vertex 103.5 -2.5 1
    endloop
  endfacet
  facet normal 0 0 1
    outer loop
      vertex 79.9837 0 1
      vertex 103.5 2.5 1
      vertex 108 16.1752 1
    endloop
  endfacet
  facet normal 0 0 1
    outer loop
      vertex 112.5 -2.5 1
      vertex 136.016 0 1
      vertex 112.5 2.5 1
    endloop
  endfacet
  facet normal -0 0 1
    outer loop
      vertex 112.5 -2.5 1
      vertex 108 -16.1752 1
      vertex 136.016 0 1
    endloop
  endfacet
  facet normal -0 0 1
    outer loop
      vertex 103.5 -2.5 1
      vertex 108 -16.1752 1
      vertex 112.5 -2.5 1
    endloop
  endfacet
  facet normal 0 0 1
    outer loop
      vertex 108 -16.1752 1
      vertex 103.5 -2.5 1
      vertex 79.9837 0 1
    endloop
  endfacet
  facet normal 0 1 -0
    outer loop
      vertex 112.5 -2.5 0
      vertex 103.5 -2.5 1
      vertex 112.5 -2.5 1
    endloop
  endfacet
  facet normal 0 1 0
    outer loop
      vertex 103.5 -2.5 1
      vertex 112.5 -2.5 0
      vertex 103.5 -2.5 0
    endloop
  endfacet
  facet normal 1 -0 0
    outer loop
      vertex 103.5 -2.5 1
      vertex 103.5 2.5 0
      vertex 103.5 2.5 1
    endloop
  endfacet
  facet normal 1 0 0
    outer loop
      vertex 103.5 2.5 0
      vertex 103.5 -2.5 1
      vertex 103.5 -2.5 0
    endloop
  endfacet
  facet normal 0 -1 0
    outer loop
      vertex 103.5 2.5 0
      vertex 112.5 2.5 1
      vertex 103.5 2.5 1
    endloop
  endfacet
  facet normal 0 -1 -0
    outer loop
      vertex 112.5 2.5 1
      vertex 103.5 2.5 0
      vertex 112.5 2.5 0
    endloop
  endfacet
  facet normal -1 0 0
    outer loop
      vertex 112.5 -2.5 0
      vertex 112.5 2.5 1
      vertex 112.5 2.5 0
    endloop
  endfacet
  facet normal -1 -0 0
    outer loop
      vertex 112.5 2.5 1
      vertex 112.5 -2.5 0
      vertex 112.5 -2.5 1
    endloop
  endfacet
endsolid OpenSCAD_Model
